M48
;DRILL file {KiCad 4.0.6} date Wednesday, June 21, 2017 'PMt' 08:53:56 PM
;FORMAT={-:-/ absolute / inch / decimal}
FMAT,2
INCH,TZ
T1C0.031
T2C0.039
%
G90
G05
M72
T1
X3.9Y-3.65
X3.9Y-3.95
X4.Y-3.65
X4.Y-3.95
X4.1Y-3.65
X4.1Y-3.95
X4.2Y-3.65
X4.2Y-3.95
X4.3Y-3.65
X4.3Y-3.95
X4.4Y-3.65
X4.4Y-3.95
X4.5Y-3.65
X4.5Y-3.95
X4.6Y-3.65
X4.6Y-3.95
T2
X3.4Y-3.7
X3.4Y-3.85
X3.4Y-4.
X3.5Y-3.7
X3.5Y-3.85
X3.5Y-4.
X3.55Y-4.25
X3.6Y-3.7
X3.6Y-3.85
X3.6Y-4.
X3.65Y-4.25
X3.75Y-4.25
X3.85Y-4.25
X3.95Y-3.45
X3.95Y-4.25
X4.05Y-3.45
X4.05Y-4.25
X4.15Y-3.45
X4.15Y-4.25
X4.25Y-3.45
X4.25Y-4.25
X4.35Y-3.45
X4.35Y-4.25
X4.45Y-3.45
X4.45Y-4.25
X4.55Y-3.45
X4.55Y-4.25
X4.65Y-3.45
X4.65Y-4.25
X4.75Y-3.45
X4.75Y-4.25
X4.85Y-3.45
X4.85Y-3.65
X4.85Y-3.75
X4.85Y-3.9
X4.85Y-4.
X4.85Y-4.25
X4.95Y-3.45
X4.95Y-3.65
X4.95Y-3.75
X4.95Y-3.9
X4.95Y-4.
X4.95Y-4.25
X5.05Y-3.45
X5.05Y-3.65
X5.05Y-3.75
X5.05Y-3.9
X5.05Y-4.
X5.05Y-4.25
T0
M30
