G04 #@! TF.FileFunction,Soldermask,Bot*
%FSLAX46Y46*%
G04 Gerber Fmt 4.6, Leading zero omitted, Abs format (unit mm)*
G04 Created by KiCad (PCBNEW 4.0.6) date Wednesday, June 21, 2017 'PMt' 08:53:47 PM*
%MOMM*%
%LPD*%
G01*
G04 APERTURE LIST*
%ADD10C,0.100000*%
%ADD11R,2.000000X2.800000*%
%ADD12O,2.000000X2.800000*%
%ADD13R,2.100000X2.100000*%
%ADD14O,2.100000X2.100000*%
%ADD15C,2.900000*%
G04 APERTURE END LIST*
D10*
D11*
X99060000Y-100330000D03*
D12*
X116840000Y-92710000D03*
X101600000Y-100330000D03*
X114300000Y-92710000D03*
X104140000Y-100330000D03*
X111760000Y-92710000D03*
X106680000Y-100330000D03*
X109220000Y-92710000D03*
X109220000Y-100330000D03*
X106680000Y-92710000D03*
X111760000Y-100330000D03*
X104140000Y-92710000D03*
X114300000Y-100330000D03*
X101600000Y-92710000D03*
X116840000Y-100330000D03*
X99060000Y-92710000D03*
D13*
X86360000Y-93980000D03*
D14*
X88900000Y-93980000D03*
X91440000Y-93980000D03*
D13*
X100330000Y-87630000D03*
D14*
X102870000Y-87630000D03*
X105410000Y-87630000D03*
X107950000Y-87630000D03*
X110490000Y-87630000D03*
X113030000Y-87630000D03*
X115570000Y-87630000D03*
X118110000Y-87630000D03*
X120650000Y-87630000D03*
X123190000Y-87630000D03*
X125730000Y-87630000D03*
X128270000Y-87630000D03*
D15*
X86360000Y-106680000D03*
X132080000Y-106680000D03*
X132080000Y-88900000D03*
X86360000Y-88900000D03*
D13*
X86360000Y-97790000D03*
D14*
X88900000Y-97790000D03*
X91440000Y-97790000D03*
D13*
X90170000Y-107950000D03*
D14*
X92710000Y-107950000D03*
X95250000Y-107950000D03*
X97790000Y-107950000D03*
X100330000Y-107950000D03*
X102870000Y-107950000D03*
X105410000Y-107950000D03*
X107950000Y-107950000D03*
X110490000Y-107950000D03*
X113030000Y-107950000D03*
X115570000Y-107950000D03*
X118110000Y-107950000D03*
X120650000Y-107950000D03*
X123190000Y-107950000D03*
X125730000Y-107950000D03*
X128270000Y-107950000D03*
D13*
X86360000Y-101600000D03*
D14*
X88900000Y-101600000D03*
X91440000Y-101600000D03*
D13*
X123190000Y-101600000D03*
D14*
X123190000Y-99060000D03*
X125730000Y-101600000D03*
X125730000Y-99060000D03*
X128270000Y-101600000D03*
X128270000Y-99060000D03*
D13*
X123190000Y-95250000D03*
D14*
X123190000Y-92710000D03*
X125730000Y-95250000D03*
X125730000Y-92710000D03*
X128270000Y-95250000D03*
X128270000Y-92710000D03*
M02*
