G04 #@! TF.FileFunction,Legend,Top*
%FSLAX46Y46*%
G04 Gerber Fmt 4.6, Leading zero omitted, Abs format (unit mm)*
G04 Created by KiCad (PCBNEW 4.0.6) date Wednesday, June 21, 2017 'PMt' 08:53:47 PM*
%MOMM*%
%LPD*%
G01*
G04 APERTURE LIST*
%ADD10C,0.100000*%
%ADD11C,0.125000*%
%ADD12C,0.120000*%
%ADD13C,0.010000*%
%ADD14C,0.150000*%
G04 APERTURE END LIST*
D10*
D11*
X102942384Y-103928690D02*
X102704289Y-103928690D01*
X102704289Y-103428690D01*
X103085241Y-103476310D02*
X103109051Y-103452500D01*
X103156670Y-103428690D01*
X103275717Y-103428690D01*
X103323336Y-103452500D01*
X103347146Y-103476310D01*
X103370955Y-103523929D01*
X103370955Y-103571548D01*
X103347146Y-103642976D01*
X103061432Y-103928690D01*
X103370955Y-103928690D01*
X103609050Y-103928690D02*
X103704288Y-103928690D01*
X103751907Y-103904881D01*
X103775717Y-103881071D01*
X103823336Y-103809643D01*
X103847145Y-103714405D01*
X103847145Y-103523929D01*
X103823336Y-103476310D01*
X103799526Y-103452500D01*
X103751907Y-103428690D01*
X103656669Y-103428690D01*
X103609050Y-103452500D01*
X103585241Y-103476310D01*
X103561431Y-103523929D01*
X103561431Y-103642976D01*
X103585241Y-103690595D01*
X103609050Y-103714405D01*
X103656669Y-103738214D01*
X103751907Y-103738214D01*
X103799526Y-103714405D01*
X103823336Y-103690595D01*
X103847145Y-103642976D01*
X104013812Y-103428690D02*
X104323335Y-103428690D01*
X104156669Y-103619167D01*
X104228097Y-103619167D01*
X104275716Y-103642976D01*
X104299526Y-103666786D01*
X104323335Y-103714405D01*
X104323335Y-103833452D01*
X104299526Y-103881071D01*
X104275716Y-103904881D01*
X104228097Y-103928690D01*
X104085240Y-103928690D01*
X104037621Y-103904881D01*
X104013812Y-103881071D01*
X104537621Y-103928690D02*
X104537621Y-103428690D01*
X104656668Y-103428690D01*
X104728097Y-103452500D01*
X104775716Y-103500119D01*
X104799525Y-103547738D01*
X104823335Y-103642976D01*
X104823335Y-103714405D01*
X104799525Y-103809643D01*
X104775716Y-103857262D01*
X104728097Y-103904881D01*
X104656668Y-103928690D01*
X104537621Y-103928690D01*
X105370954Y-103595357D02*
X105466192Y-103928690D01*
X105561430Y-103690595D01*
X105656668Y-103928690D01*
X105751906Y-103595357D01*
X106299525Y-103404881D02*
X105870954Y-104047738D01*
X106823335Y-103785833D02*
X107061430Y-103785833D01*
X106775716Y-103928690D02*
X106942383Y-103428690D01*
X107109049Y-103928690D01*
X107275716Y-103595357D02*
X107275716Y-103928690D01*
X107275716Y-103642976D02*
X107299525Y-103619167D01*
X107347144Y-103595357D01*
X107418573Y-103595357D01*
X107466192Y-103619167D01*
X107490001Y-103666786D01*
X107490001Y-103928690D01*
X107942382Y-103928690D02*
X107942382Y-103666786D01*
X107918573Y-103619167D01*
X107870954Y-103595357D01*
X107775716Y-103595357D01*
X107728097Y-103619167D01*
X107942382Y-103904881D02*
X107894763Y-103928690D01*
X107775716Y-103928690D01*
X107728097Y-103904881D01*
X107704287Y-103857262D01*
X107704287Y-103809643D01*
X107728097Y-103762024D01*
X107775716Y-103738214D01*
X107894763Y-103738214D01*
X107942382Y-103714405D01*
X108251906Y-103928690D02*
X108204287Y-103904881D01*
X108180478Y-103857262D01*
X108180478Y-103428690D01*
X108513811Y-103928690D02*
X108466192Y-103904881D01*
X108442383Y-103881071D01*
X108418573Y-103833452D01*
X108418573Y-103690595D01*
X108442383Y-103642976D01*
X108466192Y-103619167D01*
X108513811Y-103595357D01*
X108585240Y-103595357D01*
X108632859Y-103619167D01*
X108656668Y-103642976D01*
X108680478Y-103690595D01*
X108680478Y-103833452D01*
X108656668Y-103881071D01*
X108632859Y-103904881D01*
X108585240Y-103928690D01*
X108513811Y-103928690D01*
X109109049Y-103595357D02*
X109109049Y-104000119D01*
X109085240Y-104047738D01*
X109061430Y-104071548D01*
X109013811Y-104095357D01*
X108942383Y-104095357D01*
X108894764Y-104071548D01*
X109109049Y-103904881D02*
X109061430Y-103928690D01*
X108966192Y-103928690D01*
X108918573Y-103904881D01*
X108894764Y-103881071D01*
X108870954Y-103833452D01*
X108870954Y-103690595D01*
X108894764Y-103642976D01*
X108918573Y-103619167D01*
X108966192Y-103595357D01*
X109061430Y-103595357D01*
X109109049Y-103619167D01*
X109704287Y-103904881D02*
X109775716Y-103928690D01*
X109894763Y-103928690D01*
X109942382Y-103904881D01*
X109966192Y-103881071D01*
X109990001Y-103833452D01*
X109990001Y-103785833D01*
X109966192Y-103738214D01*
X109942382Y-103714405D01*
X109894763Y-103690595D01*
X109799525Y-103666786D01*
X109751906Y-103642976D01*
X109728097Y-103619167D01*
X109704287Y-103571548D01*
X109704287Y-103523929D01*
X109728097Y-103476310D01*
X109751906Y-103452500D01*
X109799525Y-103428690D01*
X109918573Y-103428690D01*
X109990001Y-103452500D01*
X110394763Y-103904881D02*
X110347144Y-103928690D01*
X110251906Y-103928690D01*
X110204287Y-103904881D01*
X110180477Y-103857262D01*
X110180477Y-103666786D01*
X110204287Y-103619167D01*
X110251906Y-103595357D01*
X110347144Y-103595357D01*
X110394763Y-103619167D01*
X110418572Y-103666786D01*
X110418572Y-103714405D01*
X110180477Y-103762024D01*
X110632858Y-103595357D02*
X110632858Y-103928690D01*
X110632858Y-103642976D02*
X110656667Y-103619167D01*
X110704286Y-103595357D01*
X110775715Y-103595357D01*
X110823334Y-103619167D01*
X110847143Y-103666786D01*
X110847143Y-103928690D01*
X111061429Y-103904881D02*
X111109048Y-103928690D01*
X111204286Y-103928690D01*
X111251905Y-103904881D01*
X111275715Y-103857262D01*
X111275715Y-103833452D01*
X111251905Y-103785833D01*
X111204286Y-103762024D01*
X111132858Y-103762024D01*
X111085239Y-103738214D01*
X111061429Y-103690595D01*
X111061429Y-103666786D01*
X111085239Y-103619167D01*
X111132858Y-103595357D01*
X111204286Y-103595357D01*
X111251905Y-103619167D01*
X111561429Y-103928690D02*
X111513810Y-103904881D01*
X111490001Y-103881071D01*
X111466191Y-103833452D01*
X111466191Y-103690595D01*
X111490001Y-103642976D01*
X111513810Y-103619167D01*
X111561429Y-103595357D01*
X111632858Y-103595357D01*
X111680477Y-103619167D01*
X111704286Y-103642976D01*
X111728096Y-103690595D01*
X111728096Y-103833452D01*
X111704286Y-103881071D01*
X111680477Y-103904881D01*
X111632858Y-103928690D01*
X111561429Y-103928690D01*
X111942382Y-103928690D02*
X111942382Y-103595357D01*
X111942382Y-103690595D02*
X111966191Y-103642976D01*
X111990001Y-103619167D01*
X112037620Y-103595357D01*
X112085239Y-103595357D01*
X112228096Y-103904881D02*
X112275715Y-103928690D01*
X112370953Y-103928690D01*
X112418572Y-103904881D01*
X112442382Y-103857262D01*
X112442382Y-103833452D01*
X112418572Y-103785833D01*
X112370953Y-103762024D01*
X112299525Y-103762024D01*
X112251906Y-103738214D01*
X112228096Y-103690595D01*
X112228096Y-103666786D01*
X112251906Y-103619167D01*
X112299525Y-103595357D01*
X112370953Y-103595357D01*
X112418572Y-103619167D01*
X113204286Y-103666786D02*
X113037620Y-103666786D01*
X113037620Y-103928690D02*
X113037620Y-103428690D01*
X113275715Y-103428690D01*
X113656667Y-103904881D02*
X113609048Y-103928690D01*
X113513810Y-103928690D01*
X113466191Y-103904881D01*
X113442381Y-103857262D01*
X113442381Y-103666786D01*
X113466191Y-103619167D01*
X113513810Y-103595357D01*
X113609048Y-103595357D01*
X113656667Y-103619167D01*
X113680476Y-103666786D01*
X113680476Y-103714405D01*
X113442381Y-103762024D01*
X114109047Y-103928690D02*
X114109047Y-103666786D01*
X114085238Y-103619167D01*
X114037619Y-103595357D01*
X113942381Y-103595357D01*
X113894762Y-103619167D01*
X114109047Y-103904881D02*
X114061428Y-103928690D01*
X113942381Y-103928690D01*
X113894762Y-103904881D01*
X113870952Y-103857262D01*
X113870952Y-103809643D01*
X113894762Y-103762024D01*
X113942381Y-103738214D01*
X114061428Y-103738214D01*
X114109047Y-103714405D01*
X114275714Y-103595357D02*
X114466190Y-103595357D01*
X114347143Y-103428690D02*
X114347143Y-103857262D01*
X114370952Y-103904881D01*
X114418571Y-103928690D01*
X114466190Y-103928690D01*
X114632857Y-103928690D02*
X114632857Y-103428690D01*
X114847142Y-103928690D02*
X114847142Y-103666786D01*
X114823333Y-103619167D01*
X114775714Y-103595357D01*
X114704285Y-103595357D01*
X114656666Y-103619167D01*
X114632857Y-103642976D01*
X115275714Y-103904881D02*
X115228095Y-103928690D01*
X115132857Y-103928690D01*
X115085238Y-103904881D01*
X115061428Y-103857262D01*
X115061428Y-103666786D01*
X115085238Y-103619167D01*
X115132857Y-103595357D01*
X115228095Y-103595357D01*
X115275714Y-103619167D01*
X115299523Y-103666786D01*
X115299523Y-103714405D01*
X115061428Y-103762024D01*
X115513809Y-103928690D02*
X115513809Y-103595357D01*
X115513809Y-103690595D02*
X115537618Y-103642976D01*
X115561428Y-103619167D01*
X115609047Y-103595357D01*
X115656666Y-103595357D01*
X116180475Y-103904881D02*
X116251904Y-103928690D01*
X116370951Y-103928690D01*
X116418570Y-103904881D01*
X116442380Y-103881071D01*
X116466189Y-103833452D01*
X116466189Y-103785833D01*
X116442380Y-103738214D01*
X116418570Y-103714405D01*
X116370951Y-103690595D01*
X116275713Y-103666786D01*
X116228094Y-103642976D01*
X116204285Y-103619167D01*
X116180475Y-103571548D01*
X116180475Y-103523929D01*
X116204285Y-103476310D01*
X116228094Y-103452500D01*
X116275713Y-103428690D01*
X116394761Y-103428690D01*
X116466189Y-103452500D01*
X116680475Y-103928690D02*
X116680475Y-103428690D01*
X116894760Y-103928690D02*
X116894760Y-103666786D01*
X116870951Y-103619167D01*
X116823332Y-103595357D01*
X116751903Y-103595357D01*
X116704284Y-103619167D01*
X116680475Y-103642976D01*
X117132856Y-103928690D02*
X117132856Y-103595357D01*
X117132856Y-103428690D02*
X117109046Y-103452500D01*
X117132856Y-103476310D01*
X117156665Y-103452500D01*
X117132856Y-103428690D01*
X117132856Y-103476310D01*
X117561427Y-103904881D02*
X117513808Y-103928690D01*
X117418570Y-103928690D01*
X117370951Y-103904881D01*
X117347141Y-103857262D01*
X117347141Y-103666786D01*
X117370951Y-103619167D01*
X117418570Y-103595357D01*
X117513808Y-103595357D01*
X117561427Y-103619167D01*
X117585236Y-103666786D01*
X117585236Y-103714405D01*
X117347141Y-103762024D01*
X117870950Y-103928690D02*
X117823331Y-103904881D01*
X117799522Y-103857262D01*
X117799522Y-103428690D01*
X118275712Y-103928690D02*
X118275712Y-103428690D01*
X118275712Y-103904881D02*
X118228093Y-103928690D01*
X118132855Y-103928690D01*
X118085236Y-103904881D01*
X118061427Y-103881071D01*
X118037617Y-103833452D01*
X118037617Y-103690595D01*
X118061427Y-103642976D01*
X118085236Y-103619167D01*
X118132855Y-103595357D01*
X118228093Y-103595357D01*
X118275712Y-103619167D01*
X103561434Y-104803690D02*
X103394767Y-104565595D01*
X103275720Y-104803690D02*
X103275720Y-104303690D01*
X103466196Y-104303690D01*
X103513815Y-104327500D01*
X103537624Y-104351310D01*
X103561434Y-104398929D01*
X103561434Y-104470357D01*
X103537624Y-104517976D01*
X103513815Y-104541786D01*
X103466196Y-104565595D01*
X103275720Y-104565595D01*
X103966196Y-104779881D02*
X103918577Y-104803690D01*
X103823339Y-104803690D01*
X103775720Y-104779881D01*
X103751910Y-104732262D01*
X103751910Y-104541786D01*
X103775720Y-104494167D01*
X103823339Y-104470357D01*
X103918577Y-104470357D01*
X103966196Y-104494167D01*
X103990005Y-104541786D01*
X103990005Y-104589405D01*
X103751910Y-104637024D01*
X104156672Y-104470357D02*
X104275719Y-104803690D01*
X104394767Y-104470357D01*
X105228099Y-104803690D02*
X104942385Y-104803690D01*
X105085242Y-104803690D02*
X105085242Y-104303690D01*
X105037623Y-104375119D01*
X104990004Y-104422738D01*
X104942385Y-104446548D01*
X105942384Y-104970357D02*
X105942384Y-104256071D01*
X106680479Y-104541786D02*
X106847145Y-104541786D01*
X106918574Y-104803690D02*
X106680479Y-104803690D01*
X106680479Y-104303690D01*
X106918574Y-104303690D01*
X107061431Y-104470357D02*
X107251907Y-104470357D01*
X107132860Y-104303690D02*
X107132860Y-104732262D01*
X107156669Y-104779881D01*
X107204288Y-104803690D01*
X107251907Y-104803690D01*
X107418574Y-104803690D02*
X107418574Y-104303690D01*
X107632859Y-104803690D02*
X107632859Y-104541786D01*
X107609050Y-104494167D01*
X107561431Y-104470357D01*
X107490002Y-104470357D01*
X107442383Y-104494167D01*
X107418574Y-104517976D01*
X108085240Y-104803690D02*
X108085240Y-104541786D01*
X108061431Y-104494167D01*
X108013812Y-104470357D01*
X107918574Y-104470357D01*
X107870955Y-104494167D01*
X108085240Y-104779881D02*
X108037621Y-104803690D01*
X107918574Y-104803690D01*
X107870955Y-104779881D01*
X107847145Y-104732262D01*
X107847145Y-104684643D01*
X107870955Y-104637024D01*
X107918574Y-104613214D01*
X108037621Y-104613214D01*
X108085240Y-104589405D01*
X108323336Y-104470357D02*
X108323336Y-104803690D01*
X108323336Y-104517976D02*
X108347145Y-104494167D01*
X108394764Y-104470357D01*
X108466193Y-104470357D01*
X108513812Y-104494167D01*
X108537621Y-104541786D01*
X108537621Y-104803690D01*
X109085240Y-104303690D02*
X109370954Y-104303690D01*
X109228097Y-104803690D02*
X109228097Y-104303690D01*
X109537621Y-104756071D02*
X109561430Y-104779881D01*
X109537621Y-104803690D01*
X109513811Y-104779881D01*
X109537621Y-104756071D01*
X109537621Y-104803690D01*
X110156668Y-104803690D02*
X110156668Y-104303690D01*
X110275715Y-104303690D01*
X110347144Y-104327500D01*
X110394763Y-104375119D01*
X110418572Y-104422738D01*
X110442382Y-104517976D01*
X110442382Y-104589405D01*
X110418572Y-104684643D01*
X110394763Y-104732262D01*
X110347144Y-104779881D01*
X110275715Y-104803690D01*
X110156668Y-104803690D01*
X110870953Y-104803690D02*
X110870953Y-104541786D01*
X110847144Y-104494167D01*
X110799525Y-104470357D01*
X110704287Y-104470357D01*
X110656668Y-104494167D01*
X110870953Y-104779881D02*
X110823334Y-104803690D01*
X110704287Y-104803690D01*
X110656668Y-104779881D01*
X110632858Y-104732262D01*
X110632858Y-104684643D01*
X110656668Y-104637024D01*
X110704287Y-104613214D01*
X110823334Y-104613214D01*
X110870953Y-104589405D01*
X111109049Y-104470357D02*
X111109049Y-104803690D01*
X111109049Y-104517976D02*
X111132858Y-104494167D01*
X111180477Y-104470357D01*
X111251906Y-104470357D01*
X111299525Y-104494167D01*
X111323334Y-104541786D01*
X111323334Y-104803690D01*
X111561430Y-104803690D02*
X111561430Y-104470357D01*
X111561430Y-104303690D02*
X111537620Y-104327500D01*
X111561430Y-104351310D01*
X111585239Y-104327500D01*
X111561430Y-104303690D01*
X111561430Y-104351310D01*
X111990001Y-104779881D02*
X111942382Y-104803690D01*
X111847144Y-104803690D01*
X111799525Y-104779881D01*
X111775715Y-104732262D01*
X111775715Y-104541786D01*
X111799525Y-104494167D01*
X111847144Y-104470357D01*
X111942382Y-104470357D01*
X111990001Y-104494167D01*
X112013810Y-104541786D01*
X112013810Y-104589405D01*
X111775715Y-104637024D01*
X112299524Y-104803690D02*
X112251905Y-104779881D01*
X112228096Y-104732262D01*
X112228096Y-104303690D01*
X112466191Y-104779881D02*
X112513810Y-104803690D01*
X112609048Y-104803690D01*
X112656667Y-104779881D01*
X112680477Y-104732262D01*
X112680477Y-104708452D01*
X112656667Y-104660833D01*
X112609048Y-104637024D01*
X112537620Y-104637024D01*
X112490001Y-104613214D01*
X112466191Y-104565595D01*
X112466191Y-104541786D01*
X112490001Y-104494167D01*
X112537620Y-104470357D01*
X112609048Y-104470357D01*
X112656667Y-104494167D01*
X113394762Y-104970357D02*
X113394762Y-104256071D01*
X114109047Y-104351310D02*
X114132857Y-104327500D01*
X114180476Y-104303690D01*
X114299523Y-104303690D01*
X114347142Y-104327500D01*
X114370952Y-104351310D01*
X114394761Y-104398929D01*
X114394761Y-104446548D01*
X114370952Y-104517976D01*
X114085238Y-104803690D01*
X114394761Y-104803690D01*
X114704285Y-104303690D02*
X114751904Y-104303690D01*
X114799523Y-104327500D01*
X114823332Y-104351310D01*
X114847142Y-104398929D01*
X114870951Y-104494167D01*
X114870951Y-104613214D01*
X114847142Y-104708452D01*
X114823332Y-104756071D01*
X114799523Y-104779881D01*
X114751904Y-104803690D01*
X114704285Y-104803690D01*
X114656666Y-104779881D01*
X114632856Y-104756071D01*
X114609047Y-104708452D01*
X114585237Y-104613214D01*
X114585237Y-104494167D01*
X114609047Y-104398929D01*
X114632856Y-104351310D01*
X114656666Y-104327500D01*
X114704285Y-104303690D01*
X115347141Y-104803690D02*
X115061427Y-104803690D01*
X115204284Y-104803690D02*
X115204284Y-104303690D01*
X115156665Y-104375119D01*
X115109046Y-104422738D01*
X115061427Y-104446548D01*
X115513808Y-104303690D02*
X115847141Y-104303690D01*
X115632855Y-104803690D01*
X116037617Y-104756071D02*
X116061426Y-104779881D01*
X116037617Y-104803690D01*
X116013807Y-104779881D01*
X116037617Y-104756071D01*
X116037617Y-104803690D01*
X116489997Y-104303690D02*
X116394759Y-104303690D01*
X116347140Y-104327500D01*
X116323331Y-104351310D01*
X116275712Y-104422738D01*
X116251902Y-104517976D01*
X116251902Y-104708452D01*
X116275712Y-104756071D01*
X116299521Y-104779881D01*
X116347140Y-104803690D01*
X116442378Y-104803690D01*
X116489997Y-104779881D01*
X116513807Y-104756071D01*
X116537616Y-104708452D01*
X116537616Y-104589405D01*
X116513807Y-104541786D01*
X116489997Y-104517976D01*
X116442378Y-104494167D01*
X116347140Y-104494167D01*
X116299521Y-104517976D01*
X116275712Y-104541786D01*
X116251902Y-104589405D01*
X116751902Y-104756071D02*
X116775711Y-104779881D01*
X116751902Y-104803690D01*
X116728092Y-104779881D01*
X116751902Y-104756071D01*
X116751902Y-104803690D01*
X116966187Y-104351310D02*
X116989997Y-104327500D01*
X117037616Y-104303690D01*
X117156663Y-104303690D01*
X117204282Y-104327500D01*
X117228092Y-104351310D01*
X117251901Y-104398929D01*
X117251901Y-104446548D01*
X117228092Y-104517976D01*
X116942378Y-104803690D01*
X117251901Y-104803690D01*
X117728091Y-104803690D02*
X117442377Y-104803690D01*
X117585234Y-104803690D02*
X117585234Y-104303690D01*
X117537615Y-104375119D01*
X117489996Y-104422738D01*
X117442377Y-104446548D01*
D12*
X97670000Y-97520000D02*
X97670000Y-98890000D01*
X97670000Y-98890000D02*
X118230000Y-98890000D01*
X118230000Y-98890000D02*
X118230000Y-94150000D01*
X118230000Y-94150000D02*
X97670000Y-94150000D01*
X97670000Y-94150000D02*
X97670000Y-95520000D01*
X97670000Y-101720000D02*
X118230000Y-101720000D01*
X118230000Y-101720000D02*
X118230000Y-91320000D01*
X118230000Y-91320000D02*
X97670000Y-91320000D01*
X97670000Y-91320000D02*
X97670000Y-101720000D01*
X97670000Y-95520000D02*
G75*
G02X97670000Y-97520000I0J-1000000D01*
G01*
X87630000Y-95310000D02*
X92770000Y-95310000D01*
X92770000Y-95310000D02*
X92770000Y-92650000D01*
X92770000Y-92650000D02*
X87630000Y-92650000D01*
X87630000Y-92650000D02*
X87630000Y-95310000D01*
X86360000Y-95310000D02*
X85030000Y-95310000D01*
X85030000Y-95310000D02*
X85030000Y-93980000D01*
X87630000Y-99120000D02*
X92770000Y-99120000D01*
X92770000Y-99120000D02*
X92770000Y-96460000D01*
X92770000Y-96460000D02*
X87630000Y-96460000D01*
X87630000Y-96460000D02*
X87630000Y-99120000D01*
X86360000Y-99120000D02*
X85030000Y-99120000D01*
X85030000Y-99120000D02*
X85030000Y-97790000D01*
X87630000Y-102930000D02*
X92770000Y-102930000D01*
X92770000Y-102930000D02*
X92770000Y-100270000D01*
X92770000Y-100270000D02*
X87630000Y-100270000D01*
X87630000Y-100270000D02*
X87630000Y-102930000D01*
X86360000Y-102930000D02*
X85030000Y-102930000D01*
X85030000Y-102930000D02*
X85030000Y-101600000D01*
X124460000Y-102930000D02*
X129600000Y-102930000D01*
X129600000Y-102930000D02*
X129600000Y-97730000D01*
X129600000Y-97730000D02*
X121860000Y-97730000D01*
X121860000Y-97730000D02*
X121860000Y-100330000D01*
X121860000Y-100330000D02*
X124460000Y-100330000D01*
X124460000Y-100330000D02*
X124460000Y-102930000D01*
X123190000Y-102930000D02*
X121860000Y-102930000D01*
X121860000Y-102930000D02*
X121860000Y-101600000D01*
X124460000Y-96580000D02*
X129600000Y-96580000D01*
X129600000Y-96580000D02*
X129600000Y-91380000D01*
X129600000Y-91380000D02*
X121860000Y-91380000D01*
X121860000Y-91380000D02*
X121860000Y-93980000D01*
X121860000Y-93980000D02*
X124460000Y-93980000D01*
X124460000Y-93980000D02*
X124460000Y-96580000D01*
X123190000Y-96580000D02*
X121860000Y-96580000D01*
X121860000Y-96580000D02*
X121860000Y-95250000D01*
D13*
G36*
X91995814Y-86876931D02*
X92079635Y-87321555D01*
X92388920Y-87449053D01*
X92698206Y-87576551D01*
X93069246Y-87324246D01*
X93173157Y-87253996D01*
X93267087Y-87191272D01*
X93346652Y-87138938D01*
X93407470Y-87099857D01*
X93445157Y-87076893D01*
X93455421Y-87071942D01*
X93473910Y-87084676D01*
X93513420Y-87119882D01*
X93569522Y-87173062D01*
X93637787Y-87239718D01*
X93713786Y-87315354D01*
X93793092Y-87395472D01*
X93871275Y-87475574D01*
X93943907Y-87551164D01*
X94006559Y-87617745D01*
X94054803Y-87670818D01*
X94084210Y-87705887D01*
X94091241Y-87717623D01*
X94081123Y-87739260D01*
X94052759Y-87786662D01*
X94009129Y-87855193D01*
X93953218Y-87940215D01*
X93888006Y-88037093D01*
X93850219Y-88092350D01*
X93781343Y-88193248D01*
X93720140Y-88284299D01*
X93669578Y-88360970D01*
X93632628Y-88418728D01*
X93612258Y-88453043D01*
X93609197Y-88460254D01*
X93616136Y-88480748D01*
X93635051Y-88528513D01*
X93663087Y-88596832D01*
X93697391Y-88678989D01*
X93735109Y-88768270D01*
X93773387Y-88857958D01*
X93809370Y-88941338D01*
X93840206Y-89011694D01*
X93863039Y-89062310D01*
X93875017Y-89086471D01*
X93875724Y-89087422D01*
X93894531Y-89092036D01*
X93944618Y-89102328D01*
X94020793Y-89117287D01*
X94117865Y-89135901D01*
X94230643Y-89157159D01*
X94296442Y-89169418D01*
X94416950Y-89192362D01*
X94525797Y-89214195D01*
X94617476Y-89233722D01*
X94686481Y-89249748D01*
X94727304Y-89261079D01*
X94735511Y-89264674D01*
X94743548Y-89289006D01*
X94750033Y-89343959D01*
X94754970Y-89423108D01*
X94758364Y-89520026D01*
X94760218Y-89628287D01*
X94760538Y-89741465D01*
X94759327Y-89853135D01*
X94756590Y-89956868D01*
X94752331Y-90046241D01*
X94746555Y-90114826D01*
X94739267Y-90156197D01*
X94734895Y-90164810D01*
X94708764Y-90175133D01*
X94653393Y-90189892D01*
X94576107Y-90207352D01*
X94484230Y-90225780D01*
X94452158Y-90231741D01*
X94297524Y-90260066D01*
X94175375Y-90282876D01*
X94081673Y-90301080D01*
X94012384Y-90315583D01*
X93963471Y-90327292D01*
X93930897Y-90337115D01*
X93910628Y-90345956D01*
X93898626Y-90354724D01*
X93896947Y-90356457D01*
X93880184Y-90384371D01*
X93854614Y-90438695D01*
X93822788Y-90512777D01*
X93787260Y-90599965D01*
X93750583Y-90693608D01*
X93715311Y-90787052D01*
X93683996Y-90873647D01*
X93659193Y-90946740D01*
X93643454Y-90999678D01*
X93639332Y-91025811D01*
X93639676Y-91026726D01*
X93653641Y-91048086D01*
X93685322Y-91095084D01*
X93731391Y-91162827D01*
X93788518Y-91246423D01*
X93853373Y-91340982D01*
X93871843Y-91367854D01*
X93937699Y-91465275D01*
X93995650Y-91554163D01*
X94042538Y-91629412D01*
X94075207Y-91685920D01*
X94090500Y-91718581D01*
X94091241Y-91722593D01*
X94078392Y-91743684D01*
X94042888Y-91785464D01*
X93989293Y-91843445D01*
X93922171Y-91913135D01*
X93846087Y-91990045D01*
X93765604Y-92069683D01*
X93685287Y-92147561D01*
X93609699Y-92219186D01*
X93543405Y-92280070D01*
X93490969Y-92325721D01*
X93456955Y-92351650D01*
X93447545Y-92355883D01*
X93425643Y-92345912D01*
X93380800Y-92319020D01*
X93320321Y-92279736D01*
X93273789Y-92248117D01*
X93189475Y-92190098D01*
X93089626Y-92121784D01*
X92989473Y-92053579D01*
X92935627Y-92017075D01*
X92753371Y-91893800D01*
X92600381Y-91976520D01*
X92530682Y-92012759D01*
X92471414Y-92040926D01*
X92431311Y-92056991D01*
X92421103Y-92059226D01*
X92408829Y-92042722D01*
X92384613Y-91996082D01*
X92350263Y-91923609D01*
X92307588Y-91829606D01*
X92258394Y-91718374D01*
X92204490Y-91594215D01*
X92147684Y-91461432D01*
X92089782Y-91324327D01*
X92032593Y-91187202D01*
X91977924Y-91054358D01*
X91927584Y-90930098D01*
X91883380Y-90818725D01*
X91847119Y-90724539D01*
X91820609Y-90651844D01*
X91805658Y-90604941D01*
X91803254Y-90588833D01*
X91822311Y-90568286D01*
X91864036Y-90534933D01*
X91919706Y-90495702D01*
X91924378Y-90492599D01*
X92068264Y-90377423D01*
X92184283Y-90243053D01*
X92271430Y-90093784D01*
X92328699Y-89933913D01*
X92355086Y-89767737D01*
X92349585Y-89599552D01*
X92311190Y-89433655D01*
X92238895Y-89274342D01*
X92217626Y-89239487D01*
X92106996Y-89098737D01*
X91976302Y-88985714D01*
X91830064Y-88901003D01*
X91672808Y-88845194D01*
X91509057Y-88818874D01*
X91343333Y-88822630D01*
X91180162Y-88857050D01*
X91024065Y-88922723D01*
X90879567Y-89020235D01*
X90834869Y-89059813D01*
X90721112Y-89183703D01*
X90638218Y-89314124D01*
X90581356Y-89460315D01*
X90549687Y-89605088D01*
X90541869Y-89767860D01*
X90567938Y-89931440D01*
X90625245Y-90090298D01*
X90711144Y-90238906D01*
X90822986Y-90371735D01*
X90958123Y-90483256D01*
X90975883Y-90495011D01*
X91032150Y-90533508D01*
X91074923Y-90566863D01*
X91095372Y-90588160D01*
X91095669Y-90588833D01*
X91091279Y-90611871D01*
X91073876Y-90664157D01*
X91045268Y-90741390D01*
X91007265Y-90839268D01*
X90961674Y-90953491D01*
X90910303Y-91079758D01*
X90854962Y-91213767D01*
X90797458Y-91351218D01*
X90739601Y-91487808D01*
X90683198Y-91619237D01*
X90630058Y-91741205D01*
X90581990Y-91849409D01*
X90540801Y-91939549D01*
X90508301Y-92007323D01*
X90486297Y-92048430D01*
X90477436Y-92059226D01*
X90450360Y-92050819D01*
X90399697Y-92028272D01*
X90334183Y-91995613D01*
X90298159Y-91976520D01*
X90145168Y-91893800D01*
X89962912Y-92017075D01*
X89869875Y-92080228D01*
X89768015Y-92149727D01*
X89672562Y-92215165D01*
X89624750Y-92248117D01*
X89557505Y-92293273D01*
X89500564Y-92329057D01*
X89461354Y-92350938D01*
X89448619Y-92355563D01*
X89430083Y-92343085D01*
X89389059Y-92308252D01*
X89329525Y-92254678D01*
X89255458Y-92185983D01*
X89170835Y-92105781D01*
X89117315Y-92054286D01*
X89023681Y-91962286D01*
X88942759Y-91879999D01*
X88877823Y-91810945D01*
X88832142Y-91758644D01*
X88808989Y-91726616D01*
X88806768Y-91720116D01*
X88817076Y-91695394D01*
X88845561Y-91645405D01*
X88889063Y-91575212D01*
X88944423Y-91489875D01*
X89008480Y-91394456D01*
X89026697Y-91367854D01*
X89093073Y-91271167D01*
X89152622Y-91184117D01*
X89202016Y-91111595D01*
X89237925Y-91058493D01*
X89257019Y-91029703D01*
X89258864Y-91026726D01*
X89256105Y-91003782D01*
X89241462Y-90953336D01*
X89217487Y-90882041D01*
X89186734Y-90796547D01*
X89151756Y-90703507D01*
X89115107Y-90609574D01*
X89079339Y-90521399D01*
X89047006Y-90445634D01*
X89020662Y-90388931D01*
X89002858Y-90357943D01*
X89001593Y-90356457D01*
X88990706Y-90347601D01*
X88972318Y-90338843D01*
X88942394Y-90329277D01*
X88896897Y-90317996D01*
X88831791Y-90304093D01*
X88743039Y-90286663D01*
X88626607Y-90264798D01*
X88478458Y-90237591D01*
X88446382Y-90231741D01*
X88351314Y-90213374D01*
X88268435Y-90195405D01*
X88205070Y-90179569D01*
X88168542Y-90167600D01*
X88163644Y-90164810D01*
X88155573Y-90140072D01*
X88149013Y-90084790D01*
X88143967Y-90005389D01*
X88140441Y-89908296D01*
X88138439Y-89799938D01*
X88137964Y-89686740D01*
X88139023Y-89575128D01*
X88141618Y-89471529D01*
X88145754Y-89382368D01*
X88151437Y-89314072D01*
X88158669Y-89273066D01*
X88163029Y-89264674D01*
X88187302Y-89256208D01*
X88242574Y-89242435D01*
X88323338Y-89224550D01*
X88424088Y-89203748D01*
X88539317Y-89181223D01*
X88602098Y-89169418D01*
X88721213Y-89147151D01*
X88827435Y-89126979D01*
X88915573Y-89109915D01*
X88980434Y-89096969D01*
X89016826Y-89089155D01*
X89022816Y-89087422D01*
X89032939Y-89067890D01*
X89054338Y-89020843D01*
X89084161Y-88953003D01*
X89119555Y-88871091D01*
X89157668Y-88781828D01*
X89195647Y-88691935D01*
X89230640Y-88608135D01*
X89259794Y-88537147D01*
X89280257Y-88485694D01*
X89289177Y-88460497D01*
X89289343Y-88459396D01*
X89279231Y-88439519D01*
X89250883Y-88393777D01*
X89207277Y-88326717D01*
X89151394Y-88242884D01*
X89086213Y-88146826D01*
X89048321Y-88091650D01*
X88979275Y-87990481D01*
X88917950Y-87898630D01*
X88867337Y-87820744D01*
X88830429Y-87761469D01*
X88810218Y-87725451D01*
X88807299Y-87717377D01*
X88819847Y-87698584D01*
X88854537Y-87658457D01*
X88906937Y-87601493D01*
X88972616Y-87532185D01*
X89047144Y-87455031D01*
X89126087Y-87374525D01*
X89205017Y-87295163D01*
X89279500Y-87221440D01*
X89345106Y-87157852D01*
X89397404Y-87108894D01*
X89431961Y-87079061D01*
X89443522Y-87071942D01*
X89462346Y-87081953D01*
X89507369Y-87110078D01*
X89574213Y-87153454D01*
X89658501Y-87209218D01*
X89755856Y-87274506D01*
X89829293Y-87324246D01*
X90200333Y-87576551D01*
X90818905Y-87321555D01*
X90902725Y-86876931D01*
X90986546Y-86432307D01*
X91911994Y-86432307D01*
X91995814Y-86876931D01*
X91995814Y-86876931D01*
G37*
X91995814Y-86876931D02*
X92079635Y-87321555D01*
X92388920Y-87449053D01*
X92698206Y-87576551D01*
X93069246Y-87324246D01*
X93173157Y-87253996D01*
X93267087Y-87191272D01*
X93346652Y-87138938D01*
X93407470Y-87099857D01*
X93445157Y-87076893D01*
X93455421Y-87071942D01*
X93473910Y-87084676D01*
X93513420Y-87119882D01*
X93569522Y-87173062D01*
X93637787Y-87239718D01*
X93713786Y-87315354D01*
X93793092Y-87395472D01*
X93871275Y-87475574D01*
X93943907Y-87551164D01*
X94006559Y-87617745D01*
X94054803Y-87670818D01*
X94084210Y-87705887D01*
X94091241Y-87717623D01*
X94081123Y-87739260D01*
X94052759Y-87786662D01*
X94009129Y-87855193D01*
X93953218Y-87940215D01*
X93888006Y-88037093D01*
X93850219Y-88092350D01*
X93781343Y-88193248D01*
X93720140Y-88284299D01*
X93669578Y-88360970D01*
X93632628Y-88418728D01*
X93612258Y-88453043D01*
X93609197Y-88460254D01*
X93616136Y-88480748D01*
X93635051Y-88528513D01*
X93663087Y-88596832D01*
X93697391Y-88678989D01*
X93735109Y-88768270D01*
X93773387Y-88857958D01*
X93809370Y-88941338D01*
X93840206Y-89011694D01*
X93863039Y-89062310D01*
X93875017Y-89086471D01*
X93875724Y-89087422D01*
X93894531Y-89092036D01*
X93944618Y-89102328D01*
X94020793Y-89117287D01*
X94117865Y-89135901D01*
X94230643Y-89157159D01*
X94296442Y-89169418D01*
X94416950Y-89192362D01*
X94525797Y-89214195D01*
X94617476Y-89233722D01*
X94686481Y-89249748D01*
X94727304Y-89261079D01*
X94735511Y-89264674D01*
X94743548Y-89289006D01*
X94750033Y-89343959D01*
X94754970Y-89423108D01*
X94758364Y-89520026D01*
X94760218Y-89628287D01*
X94760538Y-89741465D01*
X94759327Y-89853135D01*
X94756590Y-89956868D01*
X94752331Y-90046241D01*
X94746555Y-90114826D01*
X94739267Y-90156197D01*
X94734895Y-90164810D01*
X94708764Y-90175133D01*
X94653393Y-90189892D01*
X94576107Y-90207352D01*
X94484230Y-90225780D01*
X94452158Y-90231741D01*
X94297524Y-90260066D01*
X94175375Y-90282876D01*
X94081673Y-90301080D01*
X94012384Y-90315583D01*
X93963471Y-90327292D01*
X93930897Y-90337115D01*
X93910628Y-90345956D01*
X93898626Y-90354724D01*
X93896947Y-90356457D01*
X93880184Y-90384371D01*
X93854614Y-90438695D01*
X93822788Y-90512777D01*
X93787260Y-90599965D01*
X93750583Y-90693608D01*
X93715311Y-90787052D01*
X93683996Y-90873647D01*
X93659193Y-90946740D01*
X93643454Y-90999678D01*
X93639332Y-91025811D01*
X93639676Y-91026726D01*
X93653641Y-91048086D01*
X93685322Y-91095084D01*
X93731391Y-91162827D01*
X93788518Y-91246423D01*
X93853373Y-91340982D01*
X93871843Y-91367854D01*
X93937699Y-91465275D01*
X93995650Y-91554163D01*
X94042538Y-91629412D01*
X94075207Y-91685920D01*
X94090500Y-91718581D01*
X94091241Y-91722593D01*
X94078392Y-91743684D01*
X94042888Y-91785464D01*
X93989293Y-91843445D01*
X93922171Y-91913135D01*
X93846087Y-91990045D01*
X93765604Y-92069683D01*
X93685287Y-92147561D01*
X93609699Y-92219186D01*
X93543405Y-92280070D01*
X93490969Y-92325721D01*
X93456955Y-92351650D01*
X93447545Y-92355883D01*
X93425643Y-92345912D01*
X93380800Y-92319020D01*
X93320321Y-92279736D01*
X93273789Y-92248117D01*
X93189475Y-92190098D01*
X93089626Y-92121784D01*
X92989473Y-92053579D01*
X92935627Y-92017075D01*
X92753371Y-91893800D01*
X92600381Y-91976520D01*
X92530682Y-92012759D01*
X92471414Y-92040926D01*
X92431311Y-92056991D01*
X92421103Y-92059226D01*
X92408829Y-92042722D01*
X92384613Y-91996082D01*
X92350263Y-91923609D01*
X92307588Y-91829606D01*
X92258394Y-91718374D01*
X92204490Y-91594215D01*
X92147684Y-91461432D01*
X92089782Y-91324327D01*
X92032593Y-91187202D01*
X91977924Y-91054358D01*
X91927584Y-90930098D01*
X91883380Y-90818725D01*
X91847119Y-90724539D01*
X91820609Y-90651844D01*
X91805658Y-90604941D01*
X91803254Y-90588833D01*
X91822311Y-90568286D01*
X91864036Y-90534933D01*
X91919706Y-90495702D01*
X91924378Y-90492599D01*
X92068264Y-90377423D01*
X92184283Y-90243053D01*
X92271430Y-90093784D01*
X92328699Y-89933913D01*
X92355086Y-89767737D01*
X92349585Y-89599552D01*
X92311190Y-89433655D01*
X92238895Y-89274342D01*
X92217626Y-89239487D01*
X92106996Y-89098737D01*
X91976302Y-88985714D01*
X91830064Y-88901003D01*
X91672808Y-88845194D01*
X91509057Y-88818874D01*
X91343333Y-88822630D01*
X91180162Y-88857050D01*
X91024065Y-88922723D01*
X90879567Y-89020235D01*
X90834869Y-89059813D01*
X90721112Y-89183703D01*
X90638218Y-89314124D01*
X90581356Y-89460315D01*
X90549687Y-89605088D01*
X90541869Y-89767860D01*
X90567938Y-89931440D01*
X90625245Y-90090298D01*
X90711144Y-90238906D01*
X90822986Y-90371735D01*
X90958123Y-90483256D01*
X90975883Y-90495011D01*
X91032150Y-90533508D01*
X91074923Y-90566863D01*
X91095372Y-90588160D01*
X91095669Y-90588833D01*
X91091279Y-90611871D01*
X91073876Y-90664157D01*
X91045268Y-90741390D01*
X91007265Y-90839268D01*
X90961674Y-90953491D01*
X90910303Y-91079758D01*
X90854962Y-91213767D01*
X90797458Y-91351218D01*
X90739601Y-91487808D01*
X90683198Y-91619237D01*
X90630058Y-91741205D01*
X90581990Y-91849409D01*
X90540801Y-91939549D01*
X90508301Y-92007323D01*
X90486297Y-92048430D01*
X90477436Y-92059226D01*
X90450360Y-92050819D01*
X90399697Y-92028272D01*
X90334183Y-91995613D01*
X90298159Y-91976520D01*
X90145168Y-91893800D01*
X89962912Y-92017075D01*
X89869875Y-92080228D01*
X89768015Y-92149727D01*
X89672562Y-92215165D01*
X89624750Y-92248117D01*
X89557505Y-92293273D01*
X89500564Y-92329057D01*
X89461354Y-92350938D01*
X89448619Y-92355563D01*
X89430083Y-92343085D01*
X89389059Y-92308252D01*
X89329525Y-92254678D01*
X89255458Y-92185983D01*
X89170835Y-92105781D01*
X89117315Y-92054286D01*
X89023681Y-91962286D01*
X88942759Y-91879999D01*
X88877823Y-91810945D01*
X88832142Y-91758644D01*
X88808989Y-91726616D01*
X88806768Y-91720116D01*
X88817076Y-91695394D01*
X88845561Y-91645405D01*
X88889063Y-91575212D01*
X88944423Y-91489875D01*
X89008480Y-91394456D01*
X89026697Y-91367854D01*
X89093073Y-91271167D01*
X89152622Y-91184117D01*
X89202016Y-91111595D01*
X89237925Y-91058493D01*
X89257019Y-91029703D01*
X89258864Y-91026726D01*
X89256105Y-91003782D01*
X89241462Y-90953336D01*
X89217487Y-90882041D01*
X89186734Y-90796547D01*
X89151756Y-90703507D01*
X89115107Y-90609574D01*
X89079339Y-90521399D01*
X89047006Y-90445634D01*
X89020662Y-90388931D01*
X89002858Y-90357943D01*
X89001593Y-90356457D01*
X88990706Y-90347601D01*
X88972318Y-90338843D01*
X88942394Y-90329277D01*
X88896897Y-90317996D01*
X88831791Y-90304093D01*
X88743039Y-90286663D01*
X88626607Y-90264798D01*
X88478458Y-90237591D01*
X88446382Y-90231741D01*
X88351314Y-90213374D01*
X88268435Y-90195405D01*
X88205070Y-90179569D01*
X88168542Y-90167600D01*
X88163644Y-90164810D01*
X88155573Y-90140072D01*
X88149013Y-90084790D01*
X88143967Y-90005389D01*
X88140441Y-89908296D01*
X88138439Y-89799938D01*
X88137964Y-89686740D01*
X88139023Y-89575128D01*
X88141618Y-89471529D01*
X88145754Y-89382368D01*
X88151437Y-89314072D01*
X88158669Y-89273066D01*
X88163029Y-89264674D01*
X88187302Y-89256208D01*
X88242574Y-89242435D01*
X88323338Y-89224550D01*
X88424088Y-89203748D01*
X88539317Y-89181223D01*
X88602098Y-89169418D01*
X88721213Y-89147151D01*
X88827435Y-89126979D01*
X88915573Y-89109915D01*
X88980434Y-89096969D01*
X89016826Y-89089155D01*
X89022816Y-89087422D01*
X89032939Y-89067890D01*
X89054338Y-89020843D01*
X89084161Y-88953003D01*
X89119555Y-88871091D01*
X89157668Y-88781828D01*
X89195647Y-88691935D01*
X89230640Y-88608135D01*
X89259794Y-88537147D01*
X89280257Y-88485694D01*
X89289177Y-88460497D01*
X89289343Y-88459396D01*
X89279231Y-88439519D01*
X89250883Y-88393777D01*
X89207277Y-88326717D01*
X89151394Y-88242884D01*
X89086213Y-88146826D01*
X89048321Y-88091650D01*
X88979275Y-87990481D01*
X88917950Y-87898630D01*
X88867337Y-87820744D01*
X88830429Y-87761469D01*
X88810218Y-87725451D01*
X88807299Y-87717377D01*
X88819847Y-87698584D01*
X88854537Y-87658457D01*
X88906937Y-87601493D01*
X88972616Y-87532185D01*
X89047144Y-87455031D01*
X89126087Y-87374525D01*
X89205017Y-87295163D01*
X89279500Y-87221440D01*
X89345106Y-87157852D01*
X89397404Y-87108894D01*
X89431961Y-87079061D01*
X89443522Y-87071942D01*
X89462346Y-87081953D01*
X89507369Y-87110078D01*
X89574213Y-87153454D01*
X89658501Y-87209218D01*
X89755856Y-87274506D01*
X89829293Y-87324246D01*
X90200333Y-87576551D01*
X90818905Y-87321555D01*
X90902725Y-86876931D01*
X90986546Y-86432307D01*
X91911994Y-86432307D01*
X91995814Y-86876931D01*
D14*
X97122381Y-98139047D02*
X97122381Y-98615238D01*
X96122381Y-98615238D01*
X96217619Y-97853333D02*
X96170000Y-97805714D01*
X96122381Y-97710476D01*
X96122381Y-97472380D01*
X96170000Y-97377142D01*
X96217619Y-97329523D01*
X96312857Y-97281904D01*
X96408095Y-97281904D01*
X96550952Y-97329523D01*
X97122381Y-97900952D01*
X97122381Y-97281904D01*
X97122381Y-96805714D02*
X97122381Y-96615238D01*
X97074762Y-96519999D01*
X97027143Y-96472380D01*
X96884286Y-96377142D01*
X96693810Y-96329523D01*
X96312857Y-96329523D01*
X96217619Y-96377142D01*
X96170000Y-96424761D01*
X96122381Y-96519999D01*
X96122381Y-96710476D01*
X96170000Y-96805714D01*
X96217619Y-96853333D01*
X96312857Y-96900952D01*
X96550952Y-96900952D01*
X96646190Y-96853333D01*
X96693810Y-96805714D01*
X96741429Y-96710476D01*
X96741429Y-96519999D01*
X96693810Y-96424761D01*
X96646190Y-96377142D01*
X96550952Y-96329523D01*
X96122381Y-95996190D02*
X96122381Y-95377142D01*
X96503333Y-95710476D01*
X96503333Y-95567618D01*
X96550952Y-95472380D01*
X96598571Y-95424761D01*
X96693810Y-95377142D01*
X96931905Y-95377142D01*
X97027143Y-95424761D01*
X97074762Y-95472380D01*
X97122381Y-95567618D01*
X97122381Y-95853333D01*
X97074762Y-95948571D01*
X97027143Y-95996190D01*
X97122381Y-94948571D02*
X96122381Y-94948571D01*
X96122381Y-94710476D01*
X96170000Y-94567618D01*
X96265238Y-94472380D01*
X96360476Y-94424761D01*
X96550952Y-94377142D01*
X96693810Y-94377142D01*
X96884286Y-94424761D01*
X96979524Y-94472380D01*
X97074762Y-94567618D01*
X97122381Y-94710476D01*
X97122381Y-94948571D01*
X94432381Y-94884761D02*
X93956190Y-95218095D01*
X94432381Y-95456190D02*
X93432381Y-95456190D01*
X93432381Y-95075237D01*
X93480000Y-94979999D01*
X93527619Y-94932380D01*
X93622857Y-94884761D01*
X93765714Y-94884761D01*
X93860952Y-94932380D01*
X93908571Y-94979999D01*
X93956190Y-95075237D01*
X93956190Y-95456190D01*
X94432381Y-94456190D02*
X93432381Y-94456190D01*
X94432381Y-93408571D02*
X93956190Y-93741905D01*
X94432381Y-93980000D02*
X93432381Y-93980000D01*
X93432381Y-93599047D01*
X93480000Y-93503809D01*
X93527619Y-93456190D01*
X93622857Y-93408571D01*
X93765714Y-93408571D01*
X93860952Y-93456190D01*
X93908571Y-93503809D01*
X93956190Y-93599047D01*
X93956190Y-93980000D01*
X94432381Y-92456190D02*
X94432381Y-93027619D01*
X94432381Y-92741905D02*
X93432381Y-92741905D01*
X93575238Y-92837143D01*
X93670476Y-92932381D01*
X93718095Y-93027619D01*
X94337143Y-98694761D02*
X94384762Y-98742380D01*
X94432381Y-98885237D01*
X94432381Y-98980475D01*
X94384762Y-99123333D01*
X94289524Y-99218571D01*
X94194286Y-99266190D01*
X94003810Y-99313809D01*
X93860952Y-99313809D01*
X93670476Y-99266190D01*
X93575238Y-99218571D01*
X93480000Y-99123333D01*
X93432381Y-98980475D01*
X93432381Y-98885237D01*
X93480000Y-98742380D01*
X93527619Y-98694761D01*
X94432381Y-98266190D02*
X93432381Y-98266190D01*
X94432381Y-97218571D02*
X93956190Y-97551905D01*
X94432381Y-97790000D02*
X93432381Y-97790000D01*
X93432381Y-97409047D01*
X93480000Y-97313809D01*
X93527619Y-97266190D01*
X93622857Y-97218571D01*
X93765714Y-97218571D01*
X93860952Y-97266190D01*
X93908571Y-97313809D01*
X93956190Y-97409047D01*
X93956190Y-97790000D01*
X94432381Y-96266190D02*
X94432381Y-96837619D01*
X94432381Y-96551905D02*
X93432381Y-96551905D01*
X93575238Y-96647143D01*
X93670476Y-96742381D01*
X93718095Y-96837619D01*
X94432381Y-102504761D02*
X94432381Y-102980952D01*
X93432381Y-102980952D01*
X94432381Y-102171428D02*
X93432381Y-102171428D01*
X94432381Y-101123809D02*
X93956190Y-101457143D01*
X94432381Y-101695238D02*
X93432381Y-101695238D01*
X93432381Y-101314285D01*
X93480000Y-101219047D01*
X93527619Y-101171428D01*
X93622857Y-101123809D01*
X93765714Y-101123809D01*
X93860952Y-101171428D01*
X93908571Y-101219047D01*
X93956190Y-101314285D01*
X93956190Y-101695238D01*
X94432381Y-100171428D02*
X94432381Y-100742857D01*
X94432381Y-100457143D02*
X93432381Y-100457143D01*
X93575238Y-100552381D01*
X93670476Y-100647619D01*
X93718095Y-100742857D01*
X121312381Y-101068095D02*
X121312381Y-101544286D01*
X120312381Y-101544286D01*
X121312381Y-100734762D02*
X120312381Y-100734762D01*
X121026667Y-100401428D01*
X120312381Y-100068095D01*
X121312381Y-100068095D01*
X121312381Y-99068095D02*
X121312381Y-99639524D01*
X121312381Y-99353810D02*
X120312381Y-99353810D01*
X120455238Y-99449048D01*
X120550476Y-99544286D01*
X120598095Y-99639524D01*
X121312381Y-94718095D02*
X120836190Y-95051429D01*
X121312381Y-95289524D02*
X120312381Y-95289524D01*
X120312381Y-94908571D01*
X120360000Y-94813333D01*
X120407619Y-94765714D01*
X120502857Y-94718095D01*
X120645714Y-94718095D01*
X120740952Y-94765714D01*
X120788571Y-94813333D01*
X120836190Y-94908571D01*
X120836190Y-95289524D01*
X121312381Y-94289524D02*
X120312381Y-94289524D01*
X121026667Y-93956190D01*
X120312381Y-93622857D01*
X121312381Y-93622857D01*
X121312381Y-92622857D02*
X121312381Y-93194286D01*
X121312381Y-92908572D02*
X120312381Y-92908572D01*
X120455238Y-93003810D01*
X120550476Y-93099048D01*
X120598095Y-93194286D01*
M02*
