G04 #@! TF.FileFunction,Copper,L1,Top,Plane*
%FSLAX46Y46*%
G04 Gerber Fmt 4.6, Leading zero omitted, Abs format (unit mm)*
G04 Created by KiCad (PCBNEW 4.0.6) date Wednesday, June 21, 2017 'PMt' 08:53:47 PM*
%MOMM*%
%LPD*%
G01*
G04 APERTURE LIST*
%ADD10C,0.100000*%
%ADD11R,1.600000X2.400000*%
%ADD12O,1.600000X2.400000*%
%ADD13R,1.700000X1.700000*%
%ADD14O,1.700000X1.700000*%
%ADD15C,0.250000*%
%ADD16C,0.254000*%
G04 APERTURE END LIST*
D10*
D11*
X99060000Y-100330000D03*
D12*
X116840000Y-92710000D03*
X101600000Y-100330000D03*
X114300000Y-92710000D03*
X104140000Y-100330000D03*
X111760000Y-92710000D03*
X106680000Y-100330000D03*
X109220000Y-92710000D03*
X109220000Y-100330000D03*
X106680000Y-92710000D03*
X111760000Y-100330000D03*
X104140000Y-92710000D03*
X114300000Y-100330000D03*
X101600000Y-92710000D03*
X116840000Y-100330000D03*
X99060000Y-92710000D03*
D13*
X86360000Y-93980000D03*
D14*
X88900000Y-93980000D03*
X91440000Y-93980000D03*
D13*
X100330000Y-87630000D03*
D14*
X102870000Y-87630000D03*
X105410000Y-87630000D03*
X107950000Y-87630000D03*
X110490000Y-87630000D03*
X113030000Y-87630000D03*
X115570000Y-87630000D03*
X118110000Y-87630000D03*
X120650000Y-87630000D03*
X123190000Y-87630000D03*
X125730000Y-87630000D03*
X128270000Y-87630000D03*
D13*
X86360000Y-97790000D03*
D14*
X88900000Y-97790000D03*
X91440000Y-97790000D03*
D13*
X90170000Y-107950000D03*
D14*
X92710000Y-107950000D03*
X95250000Y-107950000D03*
X97790000Y-107950000D03*
X100330000Y-107950000D03*
X102870000Y-107950000D03*
X105410000Y-107950000D03*
X107950000Y-107950000D03*
X110490000Y-107950000D03*
X113030000Y-107950000D03*
X115570000Y-107950000D03*
X118110000Y-107950000D03*
X120650000Y-107950000D03*
X123190000Y-107950000D03*
X125730000Y-107950000D03*
X128270000Y-107950000D03*
D13*
X86360000Y-101600000D03*
D14*
X88900000Y-101600000D03*
X91440000Y-101600000D03*
D13*
X123190000Y-101600000D03*
D14*
X123190000Y-99060000D03*
X125730000Y-101600000D03*
X125730000Y-99060000D03*
X128270000Y-101600000D03*
X128270000Y-99060000D03*
D13*
X123190000Y-95250000D03*
D14*
X123190000Y-92710000D03*
X125730000Y-95250000D03*
X125730000Y-92710000D03*
X128270000Y-95250000D03*
X128270000Y-92710000D03*
D15*
X132080000Y-97790000D02*
X132080000Y-93980000D01*
X132080000Y-93980000D02*
X128270000Y-90170000D01*
X128270000Y-90170000D02*
X127000000Y-90170000D01*
X127000000Y-90170000D02*
X125730000Y-91440000D01*
X125730000Y-91440000D02*
X125730000Y-92710000D01*
X132080000Y-97790000D02*
X127000000Y-97790000D01*
X127000000Y-97790000D02*
X125730000Y-99060000D01*
X92710000Y-107950000D02*
X95250000Y-105410000D01*
X95250000Y-105410000D02*
X128270000Y-105410000D01*
X128270000Y-105410000D02*
X132080000Y-101600000D01*
X132080000Y-101600000D02*
X132080000Y-97790000D01*
X99060000Y-100330000D02*
X99060000Y-99060000D01*
X99060000Y-99060000D02*
X102870000Y-95250000D01*
X102870000Y-95250000D02*
X114300000Y-95250000D01*
X114300000Y-95250000D02*
X116840000Y-92710000D01*
X116840000Y-100330000D02*
X116840000Y-92710000D01*
X86360000Y-93980000D02*
X86360000Y-92710000D01*
X86360000Y-92710000D02*
X87630000Y-91440000D01*
X87630000Y-91440000D02*
X97790000Y-91440000D01*
X97790000Y-91440000D02*
X99060000Y-92710000D01*
X99060000Y-100330000D02*
X99060000Y-92710000D01*
X92710000Y-107950000D02*
X92710000Y-106680000D01*
X92710000Y-106680000D02*
X91440000Y-105410000D01*
X91440000Y-105410000D02*
X88900000Y-105410000D01*
X88900000Y-105410000D02*
X86360000Y-102870000D01*
X86360000Y-102870000D02*
X86360000Y-97790000D01*
X86360000Y-97790000D02*
X86360000Y-93980000D01*
D16*
G36*
X98841928Y-88480000D02*
X98849992Y-88581121D01*
X98903106Y-88752634D01*
X99001900Y-88902559D01*
X99138550Y-89019025D01*
X99302237Y-89092810D01*
X99480000Y-89118072D01*
X101180000Y-89118072D01*
X101281121Y-89110008D01*
X101452634Y-89056894D01*
X101602559Y-88958100D01*
X101719025Y-88821450D01*
X101792810Y-88657763D01*
X101793171Y-88655224D01*
X101816287Y-88683567D01*
X102039599Y-88868306D01*
X102294539Y-89006152D01*
X102571399Y-89091854D01*
X102859633Y-89122149D01*
X103148261Y-89095882D01*
X103426291Y-89014053D01*
X103683131Y-88879780D01*
X103909000Y-88698177D01*
X104095294Y-88476161D01*
X104139498Y-88395753D01*
X104173112Y-88458971D01*
X104356287Y-88683567D01*
X104579599Y-88868306D01*
X104834539Y-89006152D01*
X105111399Y-89091854D01*
X105399633Y-89122149D01*
X105688261Y-89095882D01*
X105966291Y-89014053D01*
X106223131Y-88879780D01*
X106449000Y-88698177D01*
X106635294Y-88476161D01*
X106679498Y-88395753D01*
X106713112Y-88458971D01*
X106896287Y-88683567D01*
X107119599Y-88868306D01*
X107374539Y-89006152D01*
X107651399Y-89091854D01*
X107939633Y-89122149D01*
X108228261Y-89095882D01*
X108506291Y-89014053D01*
X108763131Y-88879780D01*
X108989000Y-88698177D01*
X109175294Y-88476161D01*
X109219498Y-88395753D01*
X109253112Y-88458971D01*
X109436287Y-88683567D01*
X109659599Y-88868306D01*
X109914539Y-89006152D01*
X110191399Y-89091854D01*
X110479633Y-89122149D01*
X110768261Y-89095882D01*
X111046291Y-89014053D01*
X111303131Y-88879780D01*
X111529000Y-88698177D01*
X111715294Y-88476161D01*
X111759498Y-88395753D01*
X111793112Y-88458971D01*
X111976287Y-88683567D01*
X112199599Y-88868306D01*
X112454539Y-89006152D01*
X112731399Y-89091854D01*
X113019633Y-89122149D01*
X113308261Y-89095882D01*
X113586291Y-89014053D01*
X113843131Y-88879780D01*
X114069000Y-88698177D01*
X114255294Y-88476161D01*
X114299498Y-88395753D01*
X114333112Y-88458971D01*
X114516287Y-88683567D01*
X114739599Y-88868306D01*
X114994539Y-89006152D01*
X115271399Y-89091854D01*
X115559633Y-89122149D01*
X115848261Y-89095882D01*
X116126291Y-89014053D01*
X116383131Y-88879780D01*
X116609000Y-88698177D01*
X116795294Y-88476161D01*
X116839498Y-88395753D01*
X116873112Y-88458971D01*
X117056287Y-88683567D01*
X117279599Y-88868306D01*
X117534539Y-89006152D01*
X117811399Y-89091854D01*
X118099633Y-89122149D01*
X118388261Y-89095882D01*
X118666291Y-89014053D01*
X118923131Y-88879780D01*
X119149000Y-88698177D01*
X119335294Y-88476161D01*
X119379498Y-88395753D01*
X119413112Y-88458971D01*
X119596287Y-88683567D01*
X119819599Y-88868306D01*
X120074539Y-89006152D01*
X120351399Y-89091854D01*
X120639633Y-89122149D01*
X120928261Y-89095882D01*
X121206291Y-89014053D01*
X121463131Y-88879780D01*
X121689000Y-88698177D01*
X121875294Y-88476161D01*
X121919498Y-88395753D01*
X121953112Y-88458971D01*
X122136287Y-88683567D01*
X122359599Y-88868306D01*
X122614539Y-89006152D01*
X122891399Y-89091854D01*
X123179633Y-89122149D01*
X123468261Y-89095882D01*
X123746291Y-89014053D01*
X124003131Y-88879780D01*
X124229000Y-88698177D01*
X124415294Y-88476161D01*
X124459498Y-88395753D01*
X124493112Y-88458971D01*
X124676287Y-88683567D01*
X124899599Y-88868306D01*
X125154539Y-89006152D01*
X125431399Y-89091854D01*
X125719633Y-89122149D01*
X126008261Y-89095882D01*
X126286291Y-89014053D01*
X126543131Y-88879780D01*
X126769000Y-88698177D01*
X126955294Y-88476161D01*
X126999498Y-88395753D01*
X127033112Y-88458971D01*
X127216287Y-88683567D01*
X127439599Y-88868306D01*
X127694539Y-89006152D01*
X127971399Y-89091854D01*
X128259633Y-89122149D01*
X128548261Y-89095882D01*
X128826291Y-89014053D01*
X129083131Y-88879780D01*
X129309000Y-88698177D01*
X129495294Y-88476161D01*
X129634916Y-88222189D01*
X129722549Y-87945934D01*
X129754855Y-87657919D01*
X129755000Y-87637185D01*
X129755000Y-87622815D01*
X129726718Y-87334377D01*
X129646899Y-87070000D01*
X131613060Y-87070000D01*
X131545211Y-87082943D01*
X131202461Y-87221423D01*
X130893137Y-87423840D01*
X130629019Y-87682482D01*
X130420169Y-87987500D01*
X130274542Y-88327275D01*
X130197683Y-88688864D01*
X130192522Y-89058496D01*
X130259254Y-89422091D01*
X130395338Y-89765799D01*
X130595590Y-90076529D01*
X130852382Y-90342446D01*
X131155935Y-90553420D01*
X131494684Y-90701416D01*
X131855729Y-90780797D01*
X132225315Y-90788539D01*
X132589367Y-90724346D01*
X132934017Y-90590666D01*
X133246137Y-90392588D01*
X133513840Y-90137658D01*
X133726929Y-89835586D01*
X133877286Y-89497877D01*
X133910000Y-89353885D01*
X133910000Y-106216986D01*
X133893279Y-106132539D01*
X133752410Y-105790764D01*
X133547839Y-105482860D01*
X133287358Y-105220555D01*
X132980890Y-105013839D01*
X132640107Y-104870587D01*
X132277990Y-104796255D01*
X131908331Y-104793674D01*
X131545211Y-104862943D01*
X131202461Y-105001423D01*
X130893137Y-105203840D01*
X130629019Y-105462482D01*
X130420169Y-105767500D01*
X130274542Y-106107275D01*
X130197683Y-106468864D01*
X130192522Y-106838496D01*
X130259254Y-107202091D01*
X130395338Y-107545799D01*
X130595590Y-107856529D01*
X130852382Y-108122446D01*
X131155935Y-108333420D01*
X131494684Y-108481416D01*
X131624691Y-108510000D01*
X129645127Y-108510000D01*
X129722549Y-108265934D01*
X129754855Y-107977919D01*
X129755000Y-107957185D01*
X129755000Y-107942815D01*
X129726718Y-107654377D01*
X129642951Y-107376925D01*
X129506888Y-107121029D01*
X129323713Y-106896433D01*
X129100401Y-106711694D01*
X128845461Y-106573848D01*
X128568601Y-106488146D01*
X128280367Y-106457851D01*
X127991739Y-106484118D01*
X127713709Y-106565947D01*
X127456869Y-106700220D01*
X127231000Y-106881823D01*
X127044706Y-107103839D01*
X127000502Y-107184247D01*
X126966888Y-107121029D01*
X126783713Y-106896433D01*
X126560401Y-106711694D01*
X126305461Y-106573848D01*
X126028601Y-106488146D01*
X125740367Y-106457851D01*
X125451739Y-106484118D01*
X125173709Y-106565947D01*
X124916869Y-106700220D01*
X124691000Y-106881823D01*
X124504706Y-107103839D01*
X124460502Y-107184247D01*
X124426888Y-107121029D01*
X124243713Y-106896433D01*
X124020401Y-106711694D01*
X123765461Y-106573848D01*
X123488601Y-106488146D01*
X123200367Y-106457851D01*
X122911739Y-106484118D01*
X122633709Y-106565947D01*
X122376869Y-106700220D01*
X122151000Y-106881823D01*
X121964706Y-107103839D01*
X121920502Y-107184247D01*
X121886888Y-107121029D01*
X121703713Y-106896433D01*
X121480401Y-106711694D01*
X121225461Y-106573848D01*
X120948601Y-106488146D01*
X120660367Y-106457851D01*
X120371739Y-106484118D01*
X120093709Y-106565947D01*
X119836869Y-106700220D01*
X119611000Y-106881823D01*
X119424706Y-107103839D01*
X119380502Y-107184247D01*
X119346888Y-107121029D01*
X119163713Y-106896433D01*
X118940401Y-106711694D01*
X118685461Y-106573848D01*
X118408601Y-106488146D01*
X118120367Y-106457851D01*
X117831739Y-106484118D01*
X117553709Y-106565947D01*
X117296869Y-106700220D01*
X117071000Y-106881823D01*
X116884706Y-107103839D01*
X116840502Y-107184247D01*
X116806888Y-107121029D01*
X116623713Y-106896433D01*
X116400401Y-106711694D01*
X116145461Y-106573848D01*
X115868601Y-106488146D01*
X115580367Y-106457851D01*
X115291739Y-106484118D01*
X115013709Y-106565947D01*
X114756869Y-106700220D01*
X114531000Y-106881823D01*
X114344706Y-107103839D01*
X114300502Y-107184247D01*
X114266888Y-107121029D01*
X114083713Y-106896433D01*
X113860401Y-106711694D01*
X113605461Y-106573848D01*
X113328601Y-106488146D01*
X113040367Y-106457851D01*
X112751739Y-106484118D01*
X112473709Y-106565947D01*
X112216869Y-106700220D01*
X111991000Y-106881823D01*
X111804706Y-107103839D01*
X111760502Y-107184247D01*
X111726888Y-107121029D01*
X111543713Y-106896433D01*
X111320401Y-106711694D01*
X111065461Y-106573848D01*
X110788601Y-106488146D01*
X110500367Y-106457851D01*
X110211739Y-106484118D01*
X109933709Y-106565947D01*
X109676869Y-106700220D01*
X109451000Y-106881823D01*
X109264706Y-107103839D01*
X109220502Y-107184247D01*
X109186888Y-107121029D01*
X109003713Y-106896433D01*
X108780401Y-106711694D01*
X108525461Y-106573848D01*
X108248601Y-106488146D01*
X107960367Y-106457851D01*
X107671739Y-106484118D01*
X107393709Y-106565947D01*
X107136869Y-106700220D01*
X106911000Y-106881823D01*
X106724706Y-107103839D01*
X106680502Y-107184247D01*
X106646888Y-107121029D01*
X106463713Y-106896433D01*
X106240401Y-106711694D01*
X105985461Y-106573848D01*
X105708601Y-106488146D01*
X105420367Y-106457851D01*
X105131739Y-106484118D01*
X104853709Y-106565947D01*
X104596869Y-106700220D01*
X104371000Y-106881823D01*
X104184706Y-107103839D01*
X104140502Y-107184247D01*
X104106888Y-107121029D01*
X103923713Y-106896433D01*
X103700401Y-106711694D01*
X103445461Y-106573848D01*
X103168601Y-106488146D01*
X102880367Y-106457851D01*
X102591739Y-106484118D01*
X102313709Y-106565947D01*
X102056869Y-106700220D01*
X101831000Y-106881823D01*
X101644706Y-107103839D01*
X101600502Y-107184247D01*
X101566888Y-107121029D01*
X101383713Y-106896433D01*
X101160401Y-106711694D01*
X100905461Y-106573848D01*
X100628601Y-106488146D01*
X100340367Y-106457851D01*
X100051739Y-106484118D01*
X99773709Y-106565947D01*
X99516869Y-106700220D01*
X99291000Y-106881823D01*
X99104706Y-107103839D01*
X99060502Y-107184247D01*
X99026888Y-107121029D01*
X98843713Y-106896433D01*
X98620401Y-106711694D01*
X98365461Y-106573848D01*
X98088601Y-106488146D01*
X97800367Y-106457851D01*
X97511739Y-106484118D01*
X97233709Y-106565947D01*
X96976869Y-106700220D01*
X96751000Y-106881823D01*
X96564706Y-107103839D01*
X96520502Y-107184247D01*
X96486888Y-107121029D01*
X96303713Y-106896433D01*
X96080401Y-106711694D01*
X95825461Y-106573848D01*
X95548601Y-106488146D01*
X95260367Y-106457851D01*
X94971739Y-106484118D01*
X94693709Y-106565947D01*
X94436869Y-106700220D01*
X94211000Y-106881823D01*
X94024706Y-107103839D01*
X93977400Y-107189889D01*
X93905178Y-107068645D01*
X93710269Y-106852412D01*
X93476920Y-106678359D01*
X93214099Y-106553175D01*
X93066890Y-106508524D01*
X92837000Y-106629845D01*
X92837000Y-107823000D01*
X92857000Y-107823000D01*
X92857000Y-108077000D01*
X92837000Y-108077000D01*
X92837000Y-108097000D01*
X92583000Y-108097000D01*
X92583000Y-108077000D01*
X92563000Y-108077000D01*
X92563000Y-107823000D01*
X92583000Y-107823000D01*
X92583000Y-106629845D01*
X92353110Y-106508524D01*
X92205901Y-106553175D01*
X91943080Y-106678359D01*
X91709731Y-106852412D01*
X91631520Y-106939179D01*
X91596894Y-106827366D01*
X91498100Y-106677441D01*
X91361450Y-106560975D01*
X91197763Y-106487190D01*
X91020000Y-106461928D01*
X89320000Y-106461928D01*
X89218879Y-106469992D01*
X89047366Y-106523106D01*
X88897441Y-106621900D01*
X88780975Y-106758550D01*
X88707190Y-106922237D01*
X88681928Y-107100000D01*
X88681928Y-108510000D01*
X86837302Y-108510000D01*
X86869367Y-108504346D01*
X87214017Y-108370666D01*
X87526137Y-108172588D01*
X87793840Y-107917658D01*
X88006929Y-107615586D01*
X88157286Y-107277877D01*
X88239185Y-106917396D01*
X88245081Y-106495166D01*
X88173279Y-106132539D01*
X88032410Y-105790764D01*
X87827839Y-105482860D01*
X87567358Y-105220555D01*
X87260890Y-105013839D01*
X86920107Y-104870587D01*
X86557990Y-104796255D01*
X86188331Y-104793674D01*
X85825211Y-104862943D01*
X85482461Y-105001423D01*
X85173137Y-105203840D01*
X84909019Y-105462482D01*
X84700169Y-105767500D01*
X84554542Y-106107275D01*
X84530000Y-106222735D01*
X84530000Y-101885750D01*
X84875000Y-101885750D01*
X84875000Y-102512542D01*
X84899403Y-102635223D01*
X84947270Y-102750785D01*
X85016763Y-102854789D01*
X85105211Y-102943237D01*
X85209215Y-103012730D01*
X85324777Y-103060597D01*
X85447458Y-103085000D01*
X86074250Y-103085000D01*
X86233000Y-102926250D01*
X86233000Y-101727000D01*
X85033750Y-101727000D01*
X84875000Y-101885750D01*
X84530000Y-101885750D01*
X84530000Y-100687458D01*
X84875000Y-100687458D01*
X84875000Y-101314250D01*
X85033750Y-101473000D01*
X86233000Y-101473000D01*
X86233000Y-100273750D01*
X86487000Y-100273750D01*
X86487000Y-101473000D01*
X86507000Y-101473000D01*
X86507000Y-101727000D01*
X86487000Y-101727000D01*
X86487000Y-102926250D01*
X86645750Y-103085000D01*
X87272542Y-103085000D01*
X87395223Y-103060597D01*
X87510785Y-103012730D01*
X87614789Y-102943237D01*
X87703237Y-102854789D01*
X87772730Y-102750785D01*
X87820597Y-102635223D01*
X87822701Y-102624647D01*
X87846287Y-102653567D01*
X88069599Y-102838306D01*
X88324539Y-102976152D01*
X88601399Y-103061854D01*
X88889633Y-103092149D01*
X89178261Y-103065882D01*
X89456291Y-102984053D01*
X89713131Y-102849780D01*
X89939000Y-102668177D01*
X90125294Y-102446161D01*
X90169498Y-102365753D01*
X90203112Y-102428971D01*
X90386287Y-102653567D01*
X90609599Y-102838306D01*
X90864539Y-102976152D01*
X91141399Y-103061854D01*
X91429633Y-103092149D01*
X91718261Y-103065882D01*
X91996291Y-102984053D01*
X92253131Y-102849780D01*
X92479000Y-102668177D01*
X92665294Y-102446161D01*
X92804916Y-102192189D01*
X92892549Y-101915934D01*
X92924855Y-101627919D01*
X92925000Y-101607185D01*
X92925000Y-101592815D01*
X92896718Y-101304377D01*
X92812951Y-101026925D01*
X92676888Y-100771029D01*
X92550247Y-100615750D01*
X97625000Y-100615750D01*
X97625000Y-101592542D01*
X97649403Y-101715223D01*
X97697270Y-101830785D01*
X97766763Y-101934789D01*
X97855211Y-102023237D01*
X97959215Y-102092730D01*
X98074777Y-102140597D01*
X98197458Y-102165000D01*
X98774250Y-102165000D01*
X98933000Y-102006250D01*
X98933000Y-100457000D01*
X97783750Y-100457000D01*
X97625000Y-100615750D01*
X92550247Y-100615750D01*
X92493713Y-100546433D01*
X92270401Y-100361694D01*
X92015461Y-100223848D01*
X91738601Y-100138146D01*
X91450367Y-100107851D01*
X91161739Y-100134118D01*
X90883709Y-100215947D01*
X90626869Y-100350220D01*
X90401000Y-100531823D01*
X90214706Y-100753839D01*
X90170502Y-100834247D01*
X90136888Y-100771029D01*
X89953713Y-100546433D01*
X89730401Y-100361694D01*
X89475461Y-100223848D01*
X89198601Y-100138146D01*
X88910367Y-100107851D01*
X88621739Y-100134118D01*
X88343709Y-100215947D01*
X88086869Y-100350220D01*
X87861000Y-100531823D01*
X87823041Y-100577061D01*
X87820597Y-100564777D01*
X87772730Y-100449215D01*
X87703237Y-100345211D01*
X87614789Y-100256763D01*
X87510785Y-100187270D01*
X87395223Y-100139403D01*
X87272542Y-100115000D01*
X86645750Y-100115000D01*
X86487000Y-100273750D01*
X86233000Y-100273750D01*
X86074250Y-100115000D01*
X85447458Y-100115000D01*
X85324777Y-100139403D01*
X85209215Y-100187270D01*
X85105211Y-100256763D01*
X85016763Y-100345211D01*
X84947270Y-100449215D01*
X84899403Y-100564777D01*
X84875000Y-100687458D01*
X84530000Y-100687458D01*
X84530000Y-98075750D01*
X84875000Y-98075750D01*
X84875000Y-98702542D01*
X84899403Y-98825223D01*
X84947270Y-98940785D01*
X85016763Y-99044789D01*
X85105211Y-99133237D01*
X85209215Y-99202730D01*
X85324777Y-99250597D01*
X85447458Y-99275000D01*
X86074250Y-99275000D01*
X86233000Y-99116250D01*
X86233000Y-97917000D01*
X85033750Y-97917000D01*
X84875000Y-98075750D01*
X84530000Y-98075750D01*
X84530000Y-96877458D01*
X84875000Y-96877458D01*
X84875000Y-97504250D01*
X85033750Y-97663000D01*
X86233000Y-97663000D01*
X86233000Y-96463750D01*
X86487000Y-96463750D01*
X86487000Y-97663000D01*
X86507000Y-97663000D01*
X86507000Y-97917000D01*
X86487000Y-97917000D01*
X86487000Y-99116250D01*
X86645750Y-99275000D01*
X87272542Y-99275000D01*
X87395223Y-99250597D01*
X87510785Y-99202730D01*
X87614789Y-99133237D01*
X87703237Y-99044789D01*
X87772730Y-98940785D01*
X87820597Y-98825223D01*
X87822701Y-98814647D01*
X87846287Y-98843567D01*
X88069599Y-99028306D01*
X88324539Y-99166152D01*
X88601399Y-99251854D01*
X88889633Y-99282149D01*
X89178261Y-99255882D01*
X89456291Y-99174053D01*
X89713131Y-99039780D01*
X89939000Y-98858177D01*
X90125294Y-98636161D01*
X90169498Y-98555753D01*
X90203112Y-98618971D01*
X90386287Y-98843567D01*
X90609599Y-99028306D01*
X90864539Y-99166152D01*
X91141399Y-99251854D01*
X91429633Y-99282149D01*
X91718261Y-99255882D01*
X91996291Y-99174053D01*
X92200187Y-99067458D01*
X97625000Y-99067458D01*
X97625000Y-100044250D01*
X97783750Y-100203000D01*
X98933000Y-100203000D01*
X98933000Y-98653750D01*
X99187000Y-98653750D01*
X99187000Y-100203000D01*
X99207000Y-100203000D01*
X99207000Y-100457000D01*
X99187000Y-100457000D01*
X99187000Y-102006250D01*
X99345750Y-102165000D01*
X99922542Y-102165000D01*
X100045223Y-102140597D01*
X100160785Y-102092730D01*
X100264789Y-102023237D01*
X100353237Y-101934789D01*
X100422730Y-101830785D01*
X100470597Y-101715223D01*
X100486828Y-101633624D01*
X100581766Y-101750029D01*
X100797558Y-101928548D01*
X101043915Y-102061753D01*
X101311453Y-102144569D01*
X101589982Y-102173844D01*
X101868892Y-102148461D01*
X102137560Y-102069388D01*
X102385753Y-101939636D01*
X102604017Y-101764147D01*
X102784038Y-101549607D01*
X102870228Y-101392827D01*
X102944758Y-101532996D01*
X103121766Y-101750029D01*
X103337558Y-101928548D01*
X103583915Y-102061753D01*
X103851453Y-102144569D01*
X104129982Y-102173844D01*
X104408892Y-102148461D01*
X104677560Y-102069388D01*
X104925753Y-101939636D01*
X105144017Y-101764147D01*
X105324038Y-101549607D01*
X105410228Y-101392827D01*
X105484758Y-101532996D01*
X105661766Y-101750029D01*
X105877558Y-101928548D01*
X106123915Y-102061753D01*
X106391453Y-102144569D01*
X106669982Y-102173844D01*
X106948892Y-102148461D01*
X107217560Y-102069388D01*
X107465753Y-101939636D01*
X107684017Y-101764147D01*
X107864038Y-101549607D01*
X107950228Y-101392827D01*
X108024758Y-101532996D01*
X108201766Y-101750029D01*
X108417558Y-101928548D01*
X108663915Y-102061753D01*
X108931453Y-102144569D01*
X109209982Y-102173844D01*
X109488892Y-102148461D01*
X109757560Y-102069388D01*
X110005753Y-101939636D01*
X110224017Y-101764147D01*
X110404038Y-101549607D01*
X110490228Y-101392827D01*
X110564758Y-101532996D01*
X110741766Y-101750029D01*
X110957558Y-101928548D01*
X111203915Y-102061753D01*
X111471453Y-102144569D01*
X111749982Y-102173844D01*
X112028892Y-102148461D01*
X112297560Y-102069388D01*
X112545753Y-101939636D01*
X112764017Y-101764147D01*
X112944038Y-101549607D01*
X113030228Y-101392827D01*
X113104758Y-101532996D01*
X113281766Y-101750029D01*
X113497558Y-101928548D01*
X113743915Y-102061753D01*
X114011453Y-102144569D01*
X114289982Y-102173844D01*
X114568892Y-102148461D01*
X114837560Y-102069388D01*
X115085753Y-101939636D01*
X115304017Y-101764147D01*
X115484038Y-101549607D01*
X115565759Y-101400956D01*
X115717399Y-101632839D01*
X115915105Y-101834500D01*
X116148354Y-101993715D01*
X116408182Y-102104367D01*
X116490961Y-102121904D01*
X116713000Y-101999915D01*
X116713000Y-100457000D01*
X116967000Y-100457000D01*
X116967000Y-101999915D01*
X117189039Y-102121904D01*
X117271818Y-102104367D01*
X117531646Y-101993715D01*
X117764895Y-101834500D01*
X117962601Y-101632839D01*
X118117166Y-101396483D01*
X118222650Y-101134514D01*
X118275000Y-100857000D01*
X118275000Y-100750000D01*
X121701928Y-100750000D01*
X121701928Y-102450000D01*
X121709992Y-102551121D01*
X121763106Y-102722634D01*
X121861900Y-102872559D01*
X121998550Y-102989025D01*
X122162237Y-103062810D01*
X122340000Y-103088072D01*
X124040000Y-103088072D01*
X124141121Y-103080008D01*
X124312634Y-103026894D01*
X124462559Y-102928100D01*
X124579025Y-102791450D01*
X124652810Y-102627763D01*
X124653171Y-102625224D01*
X124676287Y-102653567D01*
X124899599Y-102838306D01*
X125154539Y-102976152D01*
X125431399Y-103061854D01*
X125719633Y-103092149D01*
X126008261Y-103065882D01*
X126286291Y-102984053D01*
X126543131Y-102849780D01*
X126769000Y-102668177D01*
X126955294Y-102446161D01*
X126999498Y-102365753D01*
X127033112Y-102428971D01*
X127216287Y-102653567D01*
X127439599Y-102838306D01*
X127694539Y-102976152D01*
X127971399Y-103061854D01*
X128259633Y-103092149D01*
X128548261Y-103065882D01*
X128826291Y-102984053D01*
X129083131Y-102849780D01*
X129309000Y-102668177D01*
X129495294Y-102446161D01*
X129634916Y-102192189D01*
X129722549Y-101915934D01*
X129754855Y-101627919D01*
X129755000Y-101607185D01*
X129755000Y-101592815D01*
X129726718Y-101304377D01*
X129642951Y-101026925D01*
X129506888Y-100771029D01*
X129323713Y-100546433D01*
X129100401Y-100361694D01*
X129043097Y-100330710D01*
X129083131Y-100309780D01*
X129309000Y-100128177D01*
X129495294Y-99906161D01*
X129634916Y-99652189D01*
X129722549Y-99375934D01*
X129754855Y-99087919D01*
X129755000Y-99067185D01*
X129755000Y-99052815D01*
X129726718Y-98764377D01*
X129642951Y-98486925D01*
X129506888Y-98231029D01*
X129323713Y-98006433D01*
X129100401Y-97821694D01*
X128845461Y-97683848D01*
X128568601Y-97598146D01*
X128280367Y-97567851D01*
X127991739Y-97594118D01*
X127713709Y-97675947D01*
X127456869Y-97810220D01*
X127231000Y-97991823D01*
X127044706Y-98213839D01*
X126997400Y-98299889D01*
X126925178Y-98178645D01*
X126730269Y-97962412D01*
X126496920Y-97788359D01*
X126234099Y-97663175D01*
X126086890Y-97618524D01*
X125857000Y-97739845D01*
X125857000Y-98933000D01*
X125877000Y-98933000D01*
X125877000Y-99187000D01*
X125857000Y-99187000D01*
X125857000Y-99207000D01*
X125603000Y-99207000D01*
X125603000Y-99187000D01*
X125583000Y-99187000D01*
X125583000Y-98933000D01*
X125603000Y-98933000D01*
X125603000Y-97739845D01*
X125373110Y-97618524D01*
X125225901Y-97663175D01*
X124963080Y-97788359D01*
X124729731Y-97962412D01*
X124534822Y-98178645D01*
X124463077Y-98299090D01*
X124426888Y-98231029D01*
X124243713Y-98006433D01*
X124020401Y-97821694D01*
X123765461Y-97683848D01*
X123488601Y-97598146D01*
X123200367Y-97567851D01*
X122911739Y-97594118D01*
X122633709Y-97675947D01*
X122376869Y-97810220D01*
X122151000Y-97991823D01*
X121964706Y-98213839D01*
X121825084Y-98467811D01*
X121737451Y-98744066D01*
X121705145Y-99032081D01*
X121705000Y-99052815D01*
X121705000Y-99067185D01*
X121733282Y-99355623D01*
X121817049Y-99633075D01*
X121953112Y-99888971D01*
X122136287Y-100113567D01*
X122169882Y-100141359D01*
X122067366Y-100173106D01*
X121917441Y-100271900D01*
X121800975Y-100408550D01*
X121727190Y-100572237D01*
X121701928Y-100750000D01*
X118275000Y-100750000D01*
X118275000Y-100457000D01*
X116967000Y-100457000D01*
X116713000Y-100457000D01*
X116693000Y-100457000D01*
X116693000Y-100203000D01*
X116713000Y-100203000D01*
X116713000Y-98660085D01*
X116967000Y-98660085D01*
X116967000Y-100203000D01*
X118275000Y-100203000D01*
X118275000Y-99803000D01*
X118222650Y-99525486D01*
X118117166Y-99263517D01*
X117962601Y-99027161D01*
X117764895Y-98825500D01*
X117531646Y-98666285D01*
X117271818Y-98555633D01*
X117189039Y-98538096D01*
X116967000Y-98660085D01*
X116713000Y-98660085D01*
X116490961Y-98538096D01*
X116408182Y-98555633D01*
X116148354Y-98666285D01*
X115915105Y-98825500D01*
X115717399Y-99027161D01*
X115565588Y-99259305D01*
X115495242Y-99127004D01*
X115318234Y-98909971D01*
X115102442Y-98731452D01*
X114856085Y-98598247D01*
X114588547Y-98515431D01*
X114310018Y-98486156D01*
X114031108Y-98511539D01*
X113762440Y-98590612D01*
X113514247Y-98720364D01*
X113295983Y-98895853D01*
X113115962Y-99110393D01*
X113029772Y-99267173D01*
X112955242Y-99127004D01*
X112778234Y-98909971D01*
X112562442Y-98731452D01*
X112316085Y-98598247D01*
X112048547Y-98515431D01*
X111770018Y-98486156D01*
X111491108Y-98511539D01*
X111222440Y-98590612D01*
X110974247Y-98720364D01*
X110755983Y-98895853D01*
X110575962Y-99110393D01*
X110489772Y-99267173D01*
X110415242Y-99127004D01*
X110238234Y-98909971D01*
X110022442Y-98731452D01*
X109776085Y-98598247D01*
X109508547Y-98515431D01*
X109230018Y-98486156D01*
X108951108Y-98511539D01*
X108682440Y-98590612D01*
X108434247Y-98720364D01*
X108215983Y-98895853D01*
X108035962Y-99110393D01*
X107949772Y-99267173D01*
X107875242Y-99127004D01*
X107698234Y-98909971D01*
X107482442Y-98731452D01*
X107236085Y-98598247D01*
X106968547Y-98515431D01*
X106690018Y-98486156D01*
X106411108Y-98511539D01*
X106142440Y-98590612D01*
X105894247Y-98720364D01*
X105675983Y-98895853D01*
X105495962Y-99110393D01*
X105409772Y-99267173D01*
X105335242Y-99127004D01*
X105158234Y-98909971D01*
X104942442Y-98731452D01*
X104696085Y-98598247D01*
X104428547Y-98515431D01*
X104150018Y-98486156D01*
X103871108Y-98511539D01*
X103602440Y-98590612D01*
X103354247Y-98720364D01*
X103135983Y-98895853D01*
X102955962Y-99110393D01*
X102869772Y-99267173D01*
X102795242Y-99127004D01*
X102618234Y-98909971D01*
X102402442Y-98731452D01*
X102156085Y-98598247D01*
X101888547Y-98515431D01*
X101610018Y-98486156D01*
X101331108Y-98511539D01*
X101062440Y-98590612D01*
X100814247Y-98720364D01*
X100595983Y-98895853D01*
X100486758Y-99026022D01*
X100470597Y-98944777D01*
X100422730Y-98829215D01*
X100353237Y-98725211D01*
X100264789Y-98636763D01*
X100160785Y-98567270D01*
X100045223Y-98519403D01*
X99922542Y-98495000D01*
X99345750Y-98495000D01*
X99187000Y-98653750D01*
X98933000Y-98653750D01*
X98774250Y-98495000D01*
X98197458Y-98495000D01*
X98074777Y-98519403D01*
X97959215Y-98567270D01*
X97855211Y-98636763D01*
X97766763Y-98725211D01*
X97697270Y-98829215D01*
X97649403Y-98944777D01*
X97625000Y-99067458D01*
X92200187Y-99067458D01*
X92253131Y-99039780D01*
X92479000Y-98858177D01*
X92665294Y-98636161D01*
X92804916Y-98382189D01*
X92892549Y-98105934D01*
X92924855Y-97817919D01*
X92925000Y-97797185D01*
X92925000Y-97782815D01*
X92896718Y-97494377D01*
X92812951Y-97216925D01*
X92676888Y-96961029D01*
X92493713Y-96736433D01*
X92270401Y-96551694D01*
X92015461Y-96413848D01*
X91738601Y-96328146D01*
X91450367Y-96297851D01*
X91161739Y-96324118D01*
X90883709Y-96405947D01*
X90626869Y-96540220D01*
X90401000Y-96721823D01*
X90214706Y-96943839D01*
X90170502Y-97024247D01*
X90136888Y-96961029D01*
X89953713Y-96736433D01*
X89730401Y-96551694D01*
X89475461Y-96413848D01*
X89198601Y-96328146D01*
X88910367Y-96297851D01*
X88621739Y-96324118D01*
X88343709Y-96405947D01*
X88086869Y-96540220D01*
X87861000Y-96721823D01*
X87823041Y-96767061D01*
X87820597Y-96754777D01*
X87772730Y-96639215D01*
X87703237Y-96535211D01*
X87614789Y-96446763D01*
X87510785Y-96377270D01*
X87395223Y-96329403D01*
X87272542Y-96305000D01*
X86645750Y-96305000D01*
X86487000Y-96463750D01*
X86233000Y-96463750D01*
X86074250Y-96305000D01*
X85447458Y-96305000D01*
X85324777Y-96329403D01*
X85209215Y-96377270D01*
X85105211Y-96446763D01*
X85016763Y-96535211D01*
X84947270Y-96639215D01*
X84899403Y-96754777D01*
X84875000Y-96877458D01*
X84530000Y-96877458D01*
X84530000Y-94265750D01*
X84875000Y-94265750D01*
X84875000Y-94892542D01*
X84899403Y-95015223D01*
X84947270Y-95130785D01*
X85016763Y-95234789D01*
X85105211Y-95323237D01*
X85209215Y-95392730D01*
X85324777Y-95440597D01*
X85447458Y-95465000D01*
X86074250Y-95465000D01*
X86233000Y-95306250D01*
X86233000Y-94107000D01*
X85033750Y-94107000D01*
X84875000Y-94265750D01*
X84530000Y-94265750D01*
X84530000Y-93067458D01*
X84875000Y-93067458D01*
X84875000Y-93694250D01*
X85033750Y-93853000D01*
X86233000Y-93853000D01*
X86233000Y-92653750D01*
X86487000Y-92653750D01*
X86487000Y-93853000D01*
X86507000Y-93853000D01*
X86507000Y-94107000D01*
X86487000Y-94107000D01*
X86487000Y-95306250D01*
X86645750Y-95465000D01*
X87272542Y-95465000D01*
X87395223Y-95440597D01*
X87510785Y-95392730D01*
X87614789Y-95323237D01*
X87703237Y-95234789D01*
X87772730Y-95130785D01*
X87820597Y-95015223D01*
X87822701Y-95004647D01*
X87846287Y-95033567D01*
X88069599Y-95218306D01*
X88324539Y-95356152D01*
X88601399Y-95441854D01*
X88889633Y-95472149D01*
X89178261Y-95445882D01*
X89456291Y-95364053D01*
X89713131Y-95229780D01*
X89939000Y-95048177D01*
X90125294Y-94826161D01*
X90169498Y-94745753D01*
X90203112Y-94808971D01*
X90386287Y-95033567D01*
X90609599Y-95218306D01*
X90864539Y-95356152D01*
X91141399Y-95441854D01*
X91429633Y-95472149D01*
X91718261Y-95445882D01*
X91996291Y-95364053D01*
X92253131Y-95229780D01*
X92479000Y-95048177D01*
X92665294Y-94826161D01*
X92804916Y-94572189D01*
X92892549Y-94295934D01*
X92924855Y-94007919D01*
X92925000Y-93987185D01*
X92925000Y-93972815D01*
X92896718Y-93684377D01*
X92812951Y-93406925D01*
X92676888Y-93151029D01*
X92493713Y-92926433D01*
X92385607Y-92837000D01*
X97625000Y-92837000D01*
X97625000Y-93237000D01*
X97677350Y-93514514D01*
X97782834Y-93776483D01*
X97937399Y-94012839D01*
X98135105Y-94214500D01*
X98368354Y-94373715D01*
X98628182Y-94484367D01*
X98710961Y-94501904D01*
X98933000Y-94379915D01*
X98933000Y-92837000D01*
X97625000Y-92837000D01*
X92385607Y-92837000D01*
X92270401Y-92741694D01*
X92015461Y-92603848D01*
X91738601Y-92518146D01*
X91450367Y-92487851D01*
X91161739Y-92514118D01*
X90883709Y-92595947D01*
X90626869Y-92730220D01*
X90401000Y-92911823D01*
X90214706Y-93133839D01*
X90170502Y-93214247D01*
X90136888Y-93151029D01*
X89953713Y-92926433D01*
X89730401Y-92741694D01*
X89475461Y-92603848D01*
X89198601Y-92518146D01*
X88910367Y-92487851D01*
X88621739Y-92514118D01*
X88343709Y-92595947D01*
X88086869Y-92730220D01*
X87861000Y-92911823D01*
X87823041Y-92957061D01*
X87820597Y-92944777D01*
X87772730Y-92829215D01*
X87703237Y-92725211D01*
X87614789Y-92636763D01*
X87510785Y-92567270D01*
X87395223Y-92519403D01*
X87272542Y-92495000D01*
X86645750Y-92495000D01*
X86487000Y-92653750D01*
X86233000Y-92653750D01*
X86074250Y-92495000D01*
X85447458Y-92495000D01*
X85324777Y-92519403D01*
X85209215Y-92567270D01*
X85105211Y-92636763D01*
X85016763Y-92725211D01*
X84947270Y-92829215D01*
X84899403Y-92944777D01*
X84875000Y-93067458D01*
X84530000Y-93067458D01*
X84530000Y-92183000D01*
X97625000Y-92183000D01*
X97625000Y-92583000D01*
X98933000Y-92583000D01*
X98933000Y-91040085D01*
X99187000Y-91040085D01*
X99187000Y-92583000D01*
X99207000Y-92583000D01*
X99207000Y-92837000D01*
X99187000Y-92837000D01*
X99187000Y-94379915D01*
X99409039Y-94501904D01*
X99491818Y-94484367D01*
X99751646Y-94373715D01*
X99984895Y-94214500D01*
X100182601Y-94012839D01*
X100334412Y-93780695D01*
X100404758Y-93912996D01*
X100581766Y-94130029D01*
X100797558Y-94308548D01*
X101043915Y-94441753D01*
X101311453Y-94524569D01*
X101589982Y-94553844D01*
X101868892Y-94528461D01*
X102137560Y-94449388D01*
X102385753Y-94319636D01*
X102604017Y-94144147D01*
X102784038Y-93929607D01*
X102870228Y-93772827D01*
X102944758Y-93912996D01*
X103121766Y-94130029D01*
X103337558Y-94308548D01*
X103583915Y-94441753D01*
X103851453Y-94524569D01*
X104129982Y-94553844D01*
X104408892Y-94528461D01*
X104677560Y-94449388D01*
X104925753Y-94319636D01*
X105144017Y-94144147D01*
X105324038Y-93929607D01*
X105410228Y-93772827D01*
X105484758Y-93912996D01*
X105661766Y-94130029D01*
X105877558Y-94308548D01*
X106123915Y-94441753D01*
X106391453Y-94524569D01*
X106669982Y-94553844D01*
X106948892Y-94528461D01*
X107217560Y-94449388D01*
X107465753Y-94319636D01*
X107684017Y-94144147D01*
X107864038Y-93929607D01*
X107950228Y-93772827D01*
X108024758Y-93912996D01*
X108201766Y-94130029D01*
X108417558Y-94308548D01*
X108663915Y-94441753D01*
X108931453Y-94524569D01*
X109209982Y-94553844D01*
X109488892Y-94528461D01*
X109757560Y-94449388D01*
X110005753Y-94319636D01*
X110224017Y-94144147D01*
X110404038Y-93929607D01*
X110490228Y-93772827D01*
X110564758Y-93912996D01*
X110741766Y-94130029D01*
X110957558Y-94308548D01*
X111203915Y-94441753D01*
X111471453Y-94524569D01*
X111749982Y-94553844D01*
X112028892Y-94528461D01*
X112297560Y-94449388D01*
X112545753Y-94319636D01*
X112764017Y-94144147D01*
X112944038Y-93929607D01*
X113030228Y-93772827D01*
X113104758Y-93912996D01*
X113281766Y-94130029D01*
X113497558Y-94308548D01*
X113743915Y-94441753D01*
X114011453Y-94524569D01*
X114289982Y-94553844D01*
X114568892Y-94528461D01*
X114837560Y-94449388D01*
X115085753Y-94319636D01*
X115304017Y-94144147D01*
X115484038Y-93929607D01*
X115565759Y-93780956D01*
X115717399Y-94012839D01*
X115915105Y-94214500D01*
X116148354Y-94373715D01*
X116408182Y-94484367D01*
X116490961Y-94501904D01*
X116713000Y-94379915D01*
X116713000Y-92837000D01*
X116967000Y-92837000D01*
X116967000Y-94379915D01*
X117189039Y-94501904D01*
X117271818Y-94484367D01*
X117469924Y-94400000D01*
X121701928Y-94400000D01*
X121701928Y-96100000D01*
X121709992Y-96201121D01*
X121763106Y-96372634D01*
X121861900Y-96522559D01*
X121998550Y-96639025D01*
X122162237Y-96712810D01*
X122340000Y-96738072D01*
X124040000Y-96738072D01*
X124141121Y-96730008D01*
X124312634Y-96676894D01*
X124462559Y-96578100D01*
X124579025Y-96441450D01*
X124652810Y-96277763D01*
X124653171Y-96275224D01*
X124676287Y-96303567D01*
X124899599Y-96488306D01*
X125154539Y-96626152D01*
X125431399Y-96711854D01*
X125719633Y-96742149D01*
X126008261Y-96715882D01*
X126286291Y-96634053D01*
X126543131Y-96499780D01*
X126769000Y-96318177D01*
X126955294Y-96096161D01*
X126999498Y-96015753D01*
X127033112Y-96078971D01*
X127216287Y-96303567D01*
X127439599Y-96488306D01*
X127694539Y-96626152D01*
X127971399Y-96711854D01*
X128259633Y-96742149D01*
X128548261Y-96715882D01*
X128826291Y-96634053D01*
X129083131Y-96499780D01*
X129309000Y-96318177D01*
X129495294Y-96096161D01*
X129634916Y-95842189D01*
X129722549Y-95565934D01*
X129754855Y-95277919D01*
X129755000Y-95257185D01*
X129755000Y-95242815D01*
X129726718Y-94954377D01*
X129642951Y-94676925D01*
X129506888Y-94421029D01*
X129323713Y-94196433D01*
X129100401Y-94011694D01*
X129043097Y-93980710D01*
X129083131Y-93959780D01*
X129309000Y-93778177D01*
X129495294Y-93556161D01*
X129634916Y-93302189D01*
X129722549Y-93025934D01*
X129754855Y-92737919D01*
X129755000Y-92717185D01*
X129755000Y-92702815D01*
X129726718Y-92414377D01*
X129642951Y-92136925D01*
X129506888Y-91881029D01*
X129323713Y-91656433D01*
X129100401Y-91471694D01*
X128845461Y-91333848D01*
X128568601Y-91248146D01*
X128280367Y-91217851D01*
X127991739Y-91244118D01*
X127713709Y-91325947D01*
X127456869Y-91460220D01*
X127231000Y-91641823D01*
X127044706Y-91863839D01*
X126997400Y-91949889D01*
X126925178Y-91828645D01*
X126730269Y-91612412D01*
X126496920Y-91438359D01*
X126234099Y-91313175D01*
X126086890Y-91268524D01*
X125857000Y-91389845D01*
X125857000Y-92583000D01*
X125877000Y-92583000D01*
X125877000Y-92837000D01*
X125857000Y-92837000D01*
X125857000Y-92857000D01*
X125603000Y-92857000D01*
X125603000Y-92837000D01*
X125583000Y-92837000D01*
X125583000Y-92583000D01*
X125603000Y-92583000D01*
X125603000Y-91389845D01*
X125373110Y-91268524D01*
X125225901Y-91313175D01*
X124963080Y-91438359D01*
X124729731Y-91612412D01*
X124534822Y-91828645D01*
X124463077Y-91949090D01*
X124426888Y-91881029D01*
X124243713Y-91656433D01*
X124020401Y-91471694D01*
X123765461Y-91333848D01*
X123488601Y-91248146D01*
X123200367Y-91217851D01*
X122911739Y-91244118D01*
X122633709Y-91325947D01*
X122376869Y-91460220D01*
X122151000Y-91641823D01*
X121964706Y-91863839D01*
X121825084Y-92117811D01*
X121737451Y-92394066D01*
X121705145Y-92682081D01*
X121705000Y-92702815D01*
X121705000Y-92717185D01*
X121733282Y-93005623D01*
X121817049Y-93283075D01*
X121953112Y-93538971D01*
X122136287Y-93763567D01*
X122169882Y-93791359D01*
X122067366Y-93823106D01*
X121917441Y-93921900D01*
X121800975Y-94058550D01*
X121727190Y-94222237D01*
X121701928Y-94400000D01*
X117469924Y-94400000D01*
X117531646Y-94373715D01*
X117764895Y-94214500D01*
X117962601Y-94012839D01*
X118117166Y-93776483D01*
X118222650Y-93514514D01*
X118275000Y-93237000D01*
X118275000Y-92837000D01*
X116967000Y-92837000D01*
X116713000Y-92837000D01*
X116693000Y-92837000D01*
X116693000Y-92583000D01*
X116713000Y-92583000D01*
X116713000Y-91040085D01*
X116967000Y-91040085D01*
X116967000Y-92583000D01*
X118275000Y-92583000D01*
X118275000Y-92183000D01*
X118222650Y-91905486D01*
X118117166Y-91643517D01*
X117962601Y-91407161D01*
X117764895Y-91205500D01*
X117531646Y-91046285D01*
X117271818Y-90935633D01*
X117189039Y-90918096D01*
X116967000Y-91040085D01*
X116713000Y-91040085D01*
X116490961Y-90918096D01*
X116408182Y-90935633D01*
X116148354Y-91046285D01*
X115915105Y-91205500D01*
X115717399Y-91407161D01*
X115565588Y-91639305D01*
X115495242Y-91507004D01*
X115318234Y-91289971D01*
X115102442Y-91111452D01*
X114856085Y-90978247D01*
X114588547Y-90895431D01*
X114310018Y-90866156D01*
X114031108Y-90891539D01*
X113762440Y-90970612D01*
X113514247Y-91100364D01*
X113295983Y-91275853D01*
X113115962Y-91490393D01*
X113029772Y-91647173D01*
X112955242Y-91507004D01*
X112778234Y-91289971D01*
X112562442Y-91111452D01*
X112316085Y-90978247D01*
X112048547Y-90895431D01*
X111770018Y-90866156D01*
X111491108Y-90891539D01*
X111222440Y-90970612D01*
X110974247Y-91100364D01*
X110755983Y-91275853D01*
X110575962Y-91490393D01*
X110489772Y-91647173D01*
X110415242Y-91507004D01*
X110238234Y-91289971D01*
X110022442Y-91111452D01*
X109776085Y-90978247D01*
X109508547Y-90895431D01*
X109230018Y-90866156D01*
X108951108Y-90891539D01*
X108682440Y-90970612D01*
X108434247Y-91100364D01*
X108215983Y-91275853D01*
X108035962Y-91490393D01*
X107949772Y-91647173D01*
X107875242Y-91507004D01*
X107698234Y-91289971D01*
X107482442Y-91111452D01*
X107236085Y-90978247D01*
X106968547Y-90895431D01*
X106690018Y-90866156D01*
X106411108Y-90891539D01*
X106142440Y-90970612D01*
X105894247Y-91100364D01*
X105675983Y-91275853D01*
X105495962Y-91490393D01*
X105409772Y-91647173D01*
X105335242Y-91507004D01*
X105158234Y-91289971D01*
X104942442Y-91111452D01*
X104696085Y-90978247D01*
X104428547Y-90895431D01*
X104150018Y-90866156D01*
X103871108Y-90891539D01*
X103602440Y-90970612D01*
X103354247Y-91100364D01*
X103135983Y-91275853D01*
X102955962Y-91490393D01*
X102869772Y-91647173D01*
X102795242Y-91507004D01*
X102618234Y-91289971D01*
X102402442Y-91111452D01*
X102156085Y-90978247D01*
X101888547Y-90895431D01*
X101610018Y-90866156D01*
X101331108Y-90891539D01*
X101062440Y-90970612D01*
X100814247Y-91100364D01*
X100595983Y-91275853D01*
X100415962Y-91490393D01*
X100334241Y-91639044D01*
X100182601Y-91407161D01*
X99984895Y-91205500D01*
X99751646Y-91046285D01*
X99491818Y-90935633D01*
X99409039Y-90918096D01*
X99187000Y-91040085D01*
X98933000Y-91040085D01*
X98710961Y-90918096D01*
X98628182Y-90935633D01*
X98368354Y-91046285D01*
X98135105Y-91205500D01*
X97937399Y-91407161D01*
X97782834Y-91643517D01*
X97677350Y-91905486D01*
X97625000Y-92183000D01*
X84530000Y-92183000D01*
X84530000Y-89371670D01*
X84539254Y-89422091D01*
X84675338Y-89765799D01*
X84875590Y-90076529D01*
X85132382Y-90342446D01*
X85435935Y-90553420D01*
X85774684Y-90701416D01*
X86135729Y-90780797D01*
X86505315Y-90788539D01*
X86869367Y-90724346D01*
X87214017Y-90590666D01*
X87526137Y-90392588D01*
X87793840Y-90137658D01*
X88006929Y-89835586D01*
X88157286Y-89497877D01*
X88239185Y-89137396D01*
X88245081Y-88715166D01*
X88173279Y-88352539D01*
X88032410Y-88010764D01*
X87827839Y-87702860D01*
X87567358Y-87440555D01*
X87260890Y-87233839D01*
X86920107Y-87090587D01*
X86819815Y-87070000D01*
X98841928Y-87070000D01*
X98841928Y-88480000D01*
X98841928Y-88480000D01*
G37*
X98841928Y-88480000D02*
X98849992Y-88581121D01*
X98903106Y-88752634D01*
X99001900Y-88902559D01*
X99138550Y-89019025D01*
X99302237Y-89092810D01*
X99480000Y-89118072D01*
X101180000Y-89118072D01*
X101281121Y-89110008D01*
X101452634Y-89056894D01*
X101602559Y-88958100D01*
X101719025Y-88821450D01*
X101792810Y-88657763D01*
X101793171Y-88655224D01*
X101816287Y-88683567D01*
X102039599Y-88868306D01*
X102294539Y-89006152D01*
X102571399Y-89091854D01*
X102859633Y-89122149D01*
X103148261Y-89095882D01*
X103426291Y-89014053D01*
X103683131Y-88879780D01*
X103909000Y-88698177D01*
X104095294Y-88476161D01*
X104139498Y-88395753D01*
X104173112Y-88458971D01*
X104356287Y-88683567D01*
X104579599Y-88868306D01*
X104834539Y-89006152D01*
X105111399Y-89091854D01*
X105399633Y-89122149D01*
X105688261Y-89095882D01*
X105966291Y-89014053D01*
X106223131Y-88879780D01*
X106449000Y-88698177D01*
X106635294Y-88476161D01*
X106679498Y-88395753D01*
X106713112Y-88458971D01*
X106896287Y-88683567D01*
X107119599Y-88868306D01*
X107374539Y-89006152D01*
X107651399Y-89091854D01*
X107939633Y-89122149D01*
X108228261Y-89095882D01*
X108506291Y-89014053D01*
X108763131Y-88879780D01*
X108989000Y-88698177D01*
X109175294Y-88476161D01*
X109219498Y-88395753D01*
X109253112Y-88458971D01*
X109436287Y-88683567D01*
X109659599Y-88868306D01*
X109914539Y-89006152D01*
X110191399Y-89091854D01*
X110479633Y-89122149D01*
X110768261Y-89095882D01*
X111046291Y-89014053D01*
X111303131Y-88879780D01*
X111529000Y-88698177D01*
X111715294Y-88476161D01*
X111759498Y-88395753D01*
X111793112Y-88458971D01*
X111976287Y-88683567D01*
X112199599Y-88868306D01*
X112454539Y-89006152D01*
X112731399Y-89091854D01*
X113019633Y-89122149D01*
X113308261Y-89095882D01*
X113586291Y-89014053D01*
X113843131Y-88879780D01*
X114069000Y-88698177D01*
X114255294Y-88476161D01*
X114299498Y-88395753D01*
X114333112Y-88458971D01*
X114516287Y-88683567D01*
X114739599Y-88868306D01*
X114994539Y-89006152D01*
X115271399Y-89091854D01*
X115559633Y-89122149D01*
X115848261Y-89095882D01*
X116126291Y-89014053D01*
X116383131Y-88879780D01*
X116609000Y-88698177D01*
X116795294Y-88476161D01*
X116839498Y-88395753D01*
X116873112Y-88458971D01*
X117056287Y-88683567D01*
X117279599Y-88868306D01*
X117534539Y-89006152D01*
X117811399Y-89091854D01*
X118099633Y-89122149D01*
X118388261Y-89095882D01*
X118666291Y-89014053D01*
X118923131Y-88879780D01*
X119149000Y-88698177D01*
X119335294Y-88476161D01*
X119379498Y-88395753D01*
X119413112Y-88458971D01*
X119596287Y-88683567D01*
X119819599Y-88868306D01*
X120074539Y-89006152D01*
X120351399Y-89091854D01*
X120639633Y-89122149D01*
X120928261Y-89095882D01*
X121206291Y-89014053D01*
X121463131Y-88879780D01*
X121689000Y-88698177D01*
X121875294Y-88476161D01*
X121919498Y-88395753D01*
X121953112Y-88458971D01*
X122136287Y-88683567D01*
X122359599Y-88868306D01*
X122614539Y-89006152D01*
X122891399Y-89091854D01*
X123179633Y-89122149D01*
X123468261Y-89095882D01*
X123746291Y-89014053D01*
X124003131Y-88879780D01*
X124229000Y-88698177D01*
X124415294Y-88476161D01*
X124459498Y-88395753D01*
X124493112Y-88458971D01*
X124676287Y-88683567D01*
X124899599Y-88868306D01*
X125154539Y-89006152D01*
X125431399Y-89091854D01*
X125719633Y-89122149D01*
X126008261Y-89095882D01*
X126286291Y-89014053D01*
X126543131Y-88879780D01*
X126769000Y-88698177D01*
X126955294Y-88476161D01*
X126999498Y-88395753D01*
X127033112Y-88458971D01*
X127216287Y-88683567D01*
X127439599Y-88868306D01*
X127694539Y-89006152D01*
X127971399Y-89091854D01*
X128259633Y-89122149D01*
X128548261Y-89095882D01*
X128826291Y-89014053D01*
X129083131Y-88879780D01*
X129309000Y-88698177D01*
X129495294Y-88476161D01*
X129634916Y-88222189D01*
X129722549Y-87945934D01*
X129754855Y-87657919D01*
X129755000Y-87637185D01*
X129755000Y-87622815D01*
X129726718Y-87334377D01*
X129646899Y-87070000D01*
X131613060Y-87070000D01*
X131545211Y-87082943D01*
X131202461Y-87221423D01*
X130893137Y-87423840D01*
X130629019Y-87682482D01*
X130420169Y-87987500D01*
X130274542Y-88327275D01*
X130197683Y-88688864D01*
X130192522Y-89058496D01*
X130259254Y-89422091D01*
X130395338Y-89765799D01*
X130595590Y-90076529D01*
X130852382Y-90342446D01*
X131155935Y-90553420D01*
X131494684Y-90701416D01*
X131855729Y-90780797D01*
X132225315Y-90788539D01*
X132589367Y-90724346D01*
X132934017Y-90590666D01*
X133246137Y-90392588D01*
X133513840Y-90137658D01*
X133726929Y-89835586D01*
X133877286Y-89497877D01*
X133910000Y-89353885D01*
X133910000Y-106216986D01*
X133893279Y-106132539D01*
X133752410Y-105790764D01*
X133547839Y-105482860D01*
X133287358Y-105220555D01*
X132980890Y-105013839D01*
X132640107Y-104870587D01*
X132277990Y-104796255D01*
X131908331Y-104793674D01*
X131545211Y-104862943D01*
X131202461Y-105001423D01*
X130893137Y-105203840D01*
X130629019Y-105462482D01*
X130420169Y-105767500D01*
X130274542Y-106107275D01*
X130197683Y-106468864D01*
X130192522Y-106838496D01*
X130259254Y-107202091D01*
X130395338Y-107545799D01*
X130595590Y-107856529D01*
X130852382Y-108122446D01*
X131155935Y-108333420D01*
X131494684Y-108481416D01*
X131624691Y-108510000D01*
X129645127Y-108510000D01*
X129722549Y-108265934D01*
X129754855Y-107977919D01*
X129755000Y-107957185D01*
X129755000Y-107942815D01*
X129726718Y-107654377D01*
X129642951Y-107376925D01*
X129506888Y-107121029D01*
X129323713Y-106896433D01*
X129100401Y-106711694D01*
X128845461Y-106573848D01*
X128568601Y-106488146D01*
X128280367Y-106457851D01*
X127991739Y-106484118D01*
X127713709Y-106565947D01*
X127456869Y-106700220D01*
X127231000Y-106881823D01*
X127044706Y-107103839D01*
X127000502Y-107184247D01*
X126966888Y-107121029D01*
X126783713Y-106896433D01*
X126560401Y-106711694D01*
X126305461Y-106573848D01*
X126028601Y-106488146D01*
X125740367Y-106457851D01*
X125451739Y-106484118D01*
X125173709Y-106565947D01*
X124916869Y-106700220D01*
X124691000Y-106881823D01*
X124504706Y-107103839D01*
X124460502Y-107184247D01*
X124426888Y-107121029D01*
X124243713Y-106896433D01*
X124020401Y-106711694D01*
X123765461Y-106573848D01*
X123488601Y-106488146D01*
X123200367Y-106457851D01*
X122911739Y-106484118D01*
X122633709Y-106565947D01*
X122376869Y-106700220D01*
X122151000Y-106881823D01*
X121964706Y-107103839D01*
X121920502Y-107184247D01*
X121886888Y-107121029D01*
X121703713Y-106896433D01*
X121480401Y-106711694D01*
X121225461Y-106573848D01*
X120948601Y-106488146D01*
X120660367Y-106457851D01*
X120371739Y-106484118D01*
X120093709Y-106565947D01*
X119836869Y-106700220D01*
X119611000Y-106881823D01*
X119424706Y-107103839D01*
X119380502Y-107184247D01*
X119346888Y-107121029D01*
X119163713Y-106896433D01*
X118940401Y-106711694D01*
X118685461Y-106573848D01*
X118408601Y-106488146D01*
X118120367Y-106457851D01*
X117831739Y-106484118D01*
X117553709Y-106565947D01*
X117296869Y-106700220D01*
X117071000Y-106881823D01*
X116884706Y-107103839D01*
X116840502Y-107184247D01*
X116806888Y-107121029D01*
X116623713Y-106896433D01*
X116400401Y-106711694D01*
X116145461Y-106573848D01*
X115868601Y-106488146D01*
X115580367Y-106457851D01*
X115291739Y-106484118D01*
X115013709Y-106565947D01*
X114756869Y-106700220D01*
X114531000Y-106881823D01*
X114344706Y-107103839D01*
X114300502Y-107184247D01*
X114266888Y-107121029D01*
X114083713Y-106896433D01*
X113860401Y-106711694D01*
X113605461Y-106573848D01*
X113328601Y-106488146D01*
X113040367Y-106457851D01*
X112751739Y-106484118D01*
X112473709Y-106565947D01*
X112216869Y-106700220D01*
X111991000Y-106881823D01*
X111804706Y-107103839D01*
X111760502Y-107184247D01*
X111726888Y-107121029D01*
X111543713Y-106896433D01*
X111320401Y-106711694D01*
X111065461Y-106573848D01*
X110788601Y-106488146D01*
X110500367Y-106457851D01*
X110211739Y-106484118D01*
X109933709Y-106565947D01*
X109676869Y-106700220D01*
X109451000Y-106881823D01*
X109264706Y-107103839D01*
X109220502Y-107184247D01*
X109186888Y-107121029D01*
X109003713Y-106896433D01*
X108780401Y-106711694D01*
X108525461Y-106573848D01*
X108248601Y-106488146D01*
X107960367Y-106457851D01*
X107671739Y-106484118D01*
X107393709Y-106565947D01*
X107136869Y-106700220D01*
X106911000Y-106881823D01*
X106724706Y-107103839D01*
X106680502Y-107184247D01*
X106646888Y-107121029D01*
X106463713Y-106896433D01*
X106240401Y-106711694D01*
X105985461Y-106573848D01*
X105708601Y-106488146D01*
X105420367Y-106457851D01*
X105131739Y-106484118D01*
X104853709Y-106565947D01*
X104596869Y-106700220D01*
X104371000Y-106881823D01*
X104184706Y-107103839D01*
X104140502Y-107184247D01*
X104106888Y-107121029D01*
X103923713Y-106896433D01*
X103700401Y-106711694D01*
X103445461Y-106573848D01*
X103168601Y-106488146D01*
X102880367Y-106457851D01*
X102591739Y-106484118D01*
X102313709Y-106565947D01*
X102056869Y-106700220D01*
X101831000Y-106881823D01*
X101644706Y-107103839D01*
X101600502Y-107184247D01*
X101566888Y-107121029D01*
X101383713Y-106896433D01*
X101160401Y-106711694D01*
X100905461Y-106573848D01*
X100628601Y-106488146D01*
X100340367Y-106457851D01*
X100051739Y-106484118D01*
X99773709Y-106565947D01*
X99516869Y-106700220D01*
X99291000Y-106881823D01*
X99104706Y-107103839D01*
X99060502Y-107184247D01*
X99026888Y-107121029D01*
X98843713Y-106896433D01*
X98620401Y-106711694D01*
X98365461Y-106573848D01*
X98088601Y-106488146D01*
X97800367Y-106457851D01*
X97511739Y-106484118D01*
X97233709Y-106565947D01*
X96976869Y-106700220D01*
X96751000Y-106881823D01*
X96564706Y-107103839D01*
X96520502Y-107184247D01*
X96486888Y-107121029D01*
X96303713Y-106896433D01*
X96080401Y-106711694D01*
X95825461Y-106573848D01*
X95548601Y-106488146D01*
X95260367Y-106457851D01*
X94971739Y-106484118D01*
X94693709Y-106565947D01*
X94436869Y-106700220D01*
X94211000Y-106881823D01*
X94024706Y-107103839D01*
X93977400Y-107189889D01*
X93905178Y-107068645D01*
X93710269Y-106852412D01*
X93476920Y-106678359D01*
X93214099Y-106553175D01*
X93066890Y-106508524D01*
X92837000Y-106629845D01*
X92837000Y-107823000D01*
X92857000Y-107823000D01*
X92857000Y-108077000D01*
X92837000Y-108077000D01*
X92837000Y-108097000D01*
X92583000Y-108097000D01*
X92583000Y-108077000D01*
X92563000Y-108077000D01*
X92563000Y-107823000D01*
X92583000Y-107823000D01*
X92583000Y-106629845D01*
X92353110Y-106508524D01*
X92205901Y-106553175D01*
X91943080Y-106678359D01*
X91709731Y-106852412D01*
X91631520Y-106939179D01*
X91596894Y-106827366D01*
X91498100Y-106677441D01*
X91361450Y-106560975D01*
X91197763Y-106487190D01*
X91020000Y-106461928D01*
X89320000Y-106461928D01*
X89218879Y-106469992D01*
X89047366Y-106523106D01*
X88897441Y-106621900D01*
X88780975Y-106758550D01*
X88707190Y-106922237D01*
X88681928Y-107100000D01*
X88681928Y-108510000D01*
X86837302Y-108510000D01*
X86869367Y-108504346D01*
X87214017Y-108370666D01*
X87526137Y-108172588D01*
X87793840Y-107917658D01*
X88006929Y-107615586D01*
X88157286Y-107277877D01*
X88239185Y-106917396D01*
X88245081Y-106495166D01*
X88173279Y-106132539D01*
X88032410Y-105790764D01*
X87827839Y-105482860D01*
X87567358Y-105220555D01*
X87260890Y-105013839D01*
X86920107Y-104870587D01*
X86557990Y-104796255D01*
X86188331Y-104793674D01*
X85825211Y-104862943D01*
X85482461Y-105001423D01*
X85173137Y-105203840D01*
X84909019Y-105462482D01*
X84700169Y-105767500D01*
X84554542Y-106107275D01*
X84530000Y-106222735D01*
X84530000Y-101885750D01*
X84875000Y-101885750D01*
X84875000Y-102512542D01*
X84899403Y-102635223D01*
X84947270Y-102750785D01*
X85016763Y-102854789D01*
X85105211Y-102943237D01*
X85209215Y-103012730D01*
X85324777Y-103060597D01*
X85447458Y-103085000D01*
X86074250Y-103085000D01*
X86233000Y-102926250D01*
X86233000Y-101727000D01*
X85033750Y-101727000D01*
X84875000Y-101885750D01*
X84530000Y-101885750D01*
X84530000Y-100687458D01*
X84875000Y-100687458D01*
X84875000Y-101314250D01*
X85033750Y-101473000D01*
X86233000Y-101473000D01*
X86233000Y-100273750D01*
X86487000Y-100273750D01*
X86487000Y-101473000D01*
X86507000Y-101473000D01*
X86507000Y-101727000D01*
X86487000Y-101727000D01*
X86487000Y-102926250D01*
X86645750Y-103085000D01*
X87272542Y-103085000D01*
X87395223Y-103060597D01*
X87510785Y-103012730D01*
X87614789Y-102943237D01*
X87703237Y-102854789D01*
X87772730Y-102750785D01*
X87820597Y-102635223D01*
X87822701Y-102624647D01*
X87846287Y-102653567D01*
X88069599Y-102838306D01*
X88324539Y-102976152D01*
X88601399Y-103061854D01*
X88889633Y-103092149D01*
X89178261Y-103065882D01*
X89456291Y-102984053D01*
X89713131Y-102849780D01*
X89939000Y-102668177D01*
X90125294Y-102446161D01*
X90169498Y-102365753D01*
X90203112Y-102428971D01*
X90386287Y-102653567D01*
X90609599Y-102838306D01*
X90864539Y-102976152D01*
X91141399Y-103061854D01*
X91429633Y-103092149D01*
X91718261Y-103065882D01*
X91996291Y-102984053D01*
X92253131Y-102849780D01*
X92479000Y-102668177D01*
X92665294Y-102446161D01*
X92804916Y-102192189D01*
X92892549Y-101915934D01*
X92924855Y-101627919D01*
X92925000Y-101607185D01*
X92925000Y-101592815D01*
X92896718Y-101304377D01*
X92812951Y-101026925D01*
X92676888Y-100771029D01*
X92550247Y-100615750D01*
X97625000Y-100615750D01*
X97625000Y-101592542D01*
X97649403Y-101715223D01*
X97697270Y-101830785D01*
X97766763Y-101934789D01*
X97855211Y-102023237D01*
X97959215Y-102092730D01*
X98074777Y-102140597D01*
X98197458Y-102165000D01*
X98774250Y-102165000D01*
X98933000Y-102006250D01*
X98933000Y-100457000D01*
X97783750Y-100457000D01*
X97625000Y-100615750D01*
X92550247Y-100615750D01*
X92493713Y-100546433D01*
X92270401Y-100361694D01*
X92015461Y-100223848D01*
X91738601Y-100138146D01*
X91450367Y-100107851D01*
X91161739Y-100134118D01*
X90883709Y-100215947D01*
X90626869Y-100350220D01*
X90401000Y-100531823D01*
X90214706Y-100753839D01*
X90170502Y-100834247D01*
X90136888Y-100771029D01*
X89953713Y-100546433D01*
X89730401Y-100361694D01*
X89475461Y-100223848D01*
X89198601Y-100138146D01*
X88910367Y-100107851D01*
X88621739Y-100134118D01*
X88343709Y-100215947D01*
X88086869Y-100350220D01*
X87861000Y-100531823D01*
X87823041Y-100577061D01*
X87820597Y-100564777D01*
X87772730Y-100449215D01*
X87703237Y-100345211D01*
X87614789Y-100256763D01*
X87510785Y-100187270D01*
X87395223Y-100139403D01*
X87272542Y-100115000D01*
X86645750Y-100115000D01*
X86487000Y-100273750D01*
X86233000Y-100273750D01*
X86074250Y-100115000D01*
X85447458Y-100115000D01*
X85324777Y-100139403D01*
X85209215Y-100187270D01*
X85105211Y-100256763D01*
X85016763Y-100345211D01*
X84947270Y-100449215D01*
X84899403Y-100564777D01*
X84875000Y-100687458D01*
X84530000Y-100687458D01*
X84530000Y-98075750D01*
X84875000Y-98075750D01*
X84875000Y-98702542D01*
X84899403Y-98825223D01*
X84947270Y-98940785D01*
X85016763Y-99044789D01*
X85105211Y-99133237D01*
X85209215Y-99202730D01*
X85324777Y-99250597D01*
X85447458Y-99275000D01*
X86074250Y-99275000D01*
X86233000Y-99116250D01*
X86233000Y-97917000D01*
X85033750Y-97917000D01*
X84875000Y-98075750D01*
X84530000Y-98075750D01*
X84530000Y-96877458D01*
X84875000Y-96877458D01*
X84875000Y-97504250D01*
X85033750Y-97663000D01*
X86233000Y-97663000D01*
X86233000Y-96463750D01*
X86487000Y-96463750D01*
X86487000Y-97663000D01*
X86507000Y-97663000D01*
X86507000Y-97917000D01*
X86487000Y-97917000D01*
X86487000Y-99116250D01*
X86645750Y-99275000D01*
X87272542Y-99275000D01*
X87395223Y-99250597D01*
X87510785Y-99202730D01*
X87614789Y-99133237D01*
X87703237Y-99044789D01*
X87772730Y-98940785D01*
X87820597Y-98825223D01*
X87822701Y-98814647D01*
X87846287Y-98843567D01*
X88069599Y-99028306D01*
X88324539Y-99166152D01*
X88601399Y-99251854D01*
X88889633Y-99282149D01*
X89178261Y-99255882D01*
X89456291Y-99174053D01*
X89713131Y-99039780D01*
X89939000Y-98858177D01*
X90125294Y-98636161D01*
X90169498Y-98555753D01*
X90203112Y-98618971D01*
X90386287Y-98843567D01*
X90609599Y-99028306D01*
X90864539Y-99166152D01*
X91141399Y-99251854D01*
X91429633Y-99282149D01*
X91718261Y-99255882D01*
X91996291Y-99174053D01*
X92200187Y-99067458D01*
X97625000Y-99067458D01*
X97625000Y-100044250D01*
X97783750Y-100203000D01*
X98933000Y-100203000D01*
X98933000Y-98653750D01*
X99187000Y-98653750D01*
X99187000Y-100203000D01*
X99207000Y-100203000D01*
X99207000Y-100457000D01*
X99187000Y-100457000D01*
X99187000Y-102006250D01*
X99345750Y-102165000D01*
X99922542Y-102165000D01*
X100045223Y-102140597D01*
X100160785Y-102092730D01*
X100264789Y-102023237D01*
X100353237Y-101934789D01*
X100422730Y-101830785D01*
X100470597Y-101715223D01*
X100486828Y-101633624D01*
X100581766Y-101750029D01*
X100797558Y-101928548D01*
X101043915Y-102061753D01*
X101311453Y-102144569D01*
X101589982Y-102173844D01*
X101868892Y-102148461D01*
X102137560Y-102069388D01*
X102385753Y-101939636D01*
X102604017Y-101764147D01*
X102784038Y-101549607D01*
X102870228Y-101392827D01*
X102944758Y-101532996D01*
X103121766Y-101750029D01*
X103337558Y-101928548D01*
X103583915Y-102061753D01*
X103851453Y-102144569D01*
X104129982Y-102173844D01*
X104408892Y-102148461D01*
X104677560Y-102069388D01*
X104925753Y-101939636D01*
X105144017Y-101764147D01*
X105324038Y-101549607D01*
X105410228Y-101392827D01*
X105484758Y-101532996D01*
X105661766Y-101750029D01*
X105877558Y-101928548D01*
X106123915Y-102061753D01*
X106391453Y-102144569D01*
X106669982Y-102173844D01*
X106948892Y-102148461D01*
X107217560Y-102069388D01*
X107465753Y-101939636D01*
X107684017Y-101764147D01*
X107864038Y-101549607D01*
X107950228Y-101392827D01*
X108024758Y-101532996D01*
X108201766Y-101750029D01*
X108417558Y-101928548D01*
X108663915Y-102061753D01*
X108931453Y-102144569D01*
X109209982Y-102173844D01*
X109488892Y-102148461D01*
X109757560Y-102069388D01*
X110005753Y-101939636D01*
X110224017Y-101764147D01*
X110404038Y-101549607D01*
X110490228Y-101392827D01*
X110564758Y-101532996D01*
X110741766Y-101750029D01*
X110957558Y-101928548D01*
X111203915Y-102061753D01*
X111471453Y-102144569D01*
X111749982Y-102173844D01*
X112028892Y-102148461D01*
X112297560Y-102069388D01*
X112545753Y-101939636D01*
X112764017Y-101764147D01*
X112944038Y-101549607D01*
X113030228Y-101392827D01*
X113104758Y-101532996D01*
X113281766Y-101750029D01*
X113497558Y-101928548D01*
X113743915Y-102061753D01*
X114011453Y-102144569D01*
X114289982Y-102173844D01*
X114568892Y-102148461D01*
X114837560Y-102069388D01*
X115085753Y-101939636D01*
X115304017Y-101764147D01*
X115484038Y-101549607D01*
X115565759Y-101400956D01*
X115717399Y-101632839D01*
X115915105Y-101834500D01*
X116148354Y-101993715D01*
X116408182Y-102104367D01*
X116490961Y-102121904D01*
X116713000Y-101999915D01*
X116713000Y-100457000D01*
X116967000Y-100457000D01*
X116967000Y-101999915D01*
X117189039Y-102121904D01*
X117271818Y-102104367D01*
X117531646Y-101993715D01*
X117764895Y-101834500D01*
X117962601Y-101632839D01*
X118117166Y-101396483D01*
X118222650Y-101134514D01*
X118275000Y-100857000D01*
X118275000Y-100750000D01*
X121701928Y-100750000D01*
X121701928Y-102450000D01*
X121709992Y-102551121D01*
X121763106Y-102722634D01*
X121861900Y-102872559D01*
X121998550Y-102989025D01*
X122162237Y-103062810D01*
X122340000Y-103088072D01*
X124040000Y-103088072D01*
X124141121Y-103080008D01*
X124312634Y-103026894D01*
X124462559Y-102928100D01*
X124579025Y-102791450D01*
X124652810Y-102627763D01*
X124653171Y-102625224D01*
X124676287Y-102653567D01*
X124899599Y-102838306D01*
X125154539Y-102976152D01*
X125431399Y-103061854D01*
X125719633Y-103092149D01*
X126008261Y-103065882D01*
X126286291Y-102984053D01*
X126543131Y-102849780D01*
X126769000Y-102668177D01*
X126955294Y-102446161D01*
X126999498Y-102365753D01*
X127033112Y-102428971D01*
X127216287Y-102653567D01*
X127439599Y-102838306D01*
X127694539Y-102976152D01*
X127971399Y-103061854D01*
X128259633Y-103092149D01*
X128548261Y-103065882D01*
X128826291Y-102984053D01*
X129083131Y-102849780D01*
X129309000Y-102668177D01*
X129495294Y-102446161D01*
X129634916Y-102192189D01*
X129722549Y-101915934D01*
X129754855Y-101627919D01*
X129755000Y-101607185D01*
X129755000Y-101592815D01*
X129726718Y-101304377D01*
X129642951Y-101026925D01*
X129506888Y-100771029D01*
X129323713Y-100546433D01*
X129100401Y-100361694D01*
X129043097Y-100330710D01*
X129083131Y-100309780D01*
X129309000Y-100128177D01*
X129495294Y-99906161D01*
X129634916Y-99652189D01*
X129722549Y-99375934D01*
X129754855Y-99087919D01*
X129755000Y-99067185D01*
X129755000Y-99052815D01*
X129726718Y-98764377D01*
X129642951Y-98486925D01*
X129506888Y-98231029D01*
X129323713Y-98006433D01*
X129100401Y-97821694D01*
X128845461Y-97683848D01*
X128568601Y-97598146D01*
X128280367Y-97567851D01*
X127991739Y-97594118D01*
X127713709Y-97675947D01*
X127456869Y-97810220D01*
X127231000Y-97991823D01*
X127044706Y-98213839D01*
X126997400Y-98299889D01*
X126925178Y-98178645D01*
X126730269Y-97962412D01*
X126496920Y-97788359D01*
X126234099Y-97663175D01*
X126086890Y-97618524D01*
X125857000Y-97739845D01*
X125857000Y-98933000D01*
X125877000Y-98933000D01*
X125877000Y-99187000D01*
X125857000Y-99187000D01*
X125857000Y-99207000D01*
X125603000Y-99207000D01*
X125603000Y-99187000D01*
X125583000Y-99187000D01*
X125583000Y-98933000D01*
X125603000Y-98933000D01*
X125603000Y-97739845D01*
X125373110Y-97618524D01*
X125225901Y-97663175D01*
X124963080Y-97788359D01*
X124729731Y-97962412D01*
X124534822Y-98178645D01*
X124463077Y-98299090D01*
X124426888Y-98231029D01*
X124243713Y-98006433D01*
X124020401Y-97821694D01*
X123765461Y-97683848D01*
X123488601Y-97598146D01*
X123200367Y-97567851D01*
X122911739Y-97594118D01*
X122633709Y-97675947D01*
X122376869Y-97810220D01*
X122151000Y-97991823D01*
X121964706Y-98213839D01*
X121825084Y-98467811D01*
X121737451Y-98744066D01*
X121705145Y-99032081D01*
X121705000Y-99052815D01*
X121705000Y-99067185D01*
X121733282Y-99355623D01*
X121817049Y-99633075D01*
X121953112Y-99888971D01*
X122136287Y-100113567D01*
X122169882Y-100141359D01*
X122067366Y-100173106D01*
X121917441Y-100271900D01*
X121800975Y-100408550D01*
X121727190Y-100572237D01*
X121701928Y-100750000D01*
X118275000Y-100750000D01*
X118275000Y-100457000D01*
X116967000Y-100457000D01*
X116713000Y-100457000D01*
X116693000Y-100457000D01*
X116693000Y-100203000D01*
X116713000Y-100203000D01*
X116713000Y-98660085D01*
X116967000Y-98660085D01*
X116967000Y-100203000D01*
X118275000Y-100203000D01*
X118275000Y-99803000D01*
X118222650Y-99525486D01*
X118117166Y-99263517D01*
X117962601Y-99027161D01*
X117764895Y-98825500D01*
X117531646Y-98666285D01*
X117271818Y-98555633D01*
X117189039Y-98538096D01*
X116967000Y-98660085D01*
X116713000Y-98660085D01*
X116490961Y-98538096D01*
X116408182Y-98555633D01*
X116148354Y-98666285D01*
X115915105Y-98825500D01*
X115717399Y-99027161D01*
X115565588Y-99259305D01*
X115495242Y-99127004D01*
X115318234Y-98909971D01*
X115102442Y-98731452D01*
X114856085Y-98598247D01*
X114588547Y-98515431D01*
X114310018Y-98486156D01*
X114031108Y-98511539D01*
X113762440Y-98590612D01*
X113514247Y-98720364D01*
X113295983Y-98895853D01*
X113115962Y-99110393D01*
X113029772Y-99267173D01*
X112955242Y-99127004D01*
X112778234Y-98909971D01*
X112562442Y-98731452D01*
X112316085Y-98598247D01*
X112048547Y-98515431D01*
X111770018Y-98486156D01*
X111491108Y-98511539D01*
X111222440Y-98590612D01*
X110974247Y-98720364D01*
X110755983Y-98895853D01*
X110575962Y-99110393D01*
X110489772Y-99267173D01*
X110415242Y-99127004D01*
X110238234Y-98909971D01*
X110022442Y-98731452D01*
X109776085Y-98598247D01*
X109508547Y-98515431D01*
X109230018Y-98486156D01*
X108951108Y-98511539D01*
X108682440Y-98590612D01*
X108434247Y-98720364D01*
X108215983Y-98895853D01*
X108035962Y-99110393D01*
X107949772Y-99267173D01*
X107875242Y-99127004D01*
X107698234Y-98909971D01*
X107482442Y-98731452D01*
X107236085Y-98598247D01*
X106968547Y-98515431D01*
X106690018Y-98486156D01*
X106411108Y-98511539D01*
X106142440Y-98590612D01*
X105894247Y-98720364D01*
X105675983Y-98895853D01*
X105495962Y-99110393D01*
X105409772Y-99267173D01*
X105335242Y-99127004D01*
X105158234Y-98909971D01*
X104942442Y-98731452D01*
X104696085Y-98598247D01*
X104428547Y-98515431D01*
X104150018Y-98486156D01*
X103871108Y-98511539D01*
X103602440Y-98590612D01*
X103354247Y-98720364D01*
X103135983Y-98895853D01*
X102955962Y-99110393D01*
X102869772Y-99267173D01*
X102795242Y-99127004D01*
X102618234Y-98909971D01*
X102402442Y-98731452D01*
X102156085Y-98598247D01*
X101888547Y-98515431D01*
X101610018Y-98486156D01*
X101331108Y-98511539D01*
X101062440Y-98590612D01*
X100814247Y-98720364D01*
X100595983Y-98895853D01*
X100486758Y-99026022D01*
X100470597Y-98944777D01*
X100422730Y-98829215D01*
X100353237Y-98725211D01*
X100264789Y-98636763D01*
X100160785Y-98567270D01*
X100045223Y-98519403D01*
X99922542Y-98495000D01*
X99345750Y-98495000D01*
X99187000Y-98653750D01*
X98933000Y-98653750D01*
X98774250Y-98495000D01*
X98197458Y-98495000D01*
X98074777Y-98519403D01*
X97959215Y-98567270D01*
X97855211Y-98636763D01*
X97766763Y-98725211D01*
X97697270Y-98829215D01*
X97649403Y-98944777D01*
X97625000Y-99067458D01*
X92200187Y-99067458D01*
X92253131Y-99039780D01*
X92479000Y-98858177D01*
X92665294Y-98636161D01*
X92804916Y-98382189D01*
X92892549Y-98105934D01*
X92924855Y-97817919D01*
X92925000Y-97797185D01*
X92925000Y-97782815D01*
X92896718Y-97494377D01*
X92812951Y-97216925D01*
X92676888Y-96961029D01*
X92493713Y-96736433D01*
X92270401Y-96551694D01*
X92015461Y-96413848D01*
X91738601Y-96328146D01*
X91450367Y-96297851D01*
X91161739Y-96324118D01*
X90883709Y-96405947D01*
X90626869Y-96540220D01*
X90401000Y-96721823D01*
X90214706Y-96943839D01*
X90170502Y-97024247D01*
X90136888Y-96961029D01*
X89953713Y-96736433D01*
X89730401Y-96551694D01*
X89475461Y-96413848D01*
X89198601Y-96328146D01*
X88910367Y-96297851D01*
X88621739Y-96324118D01*
X88343709Y-96405947D01*
X88086869Y-96540220D01*
X87861000Y-96721823D01*
X87823041Y-96767061D01*
X87820597Y-96754777D01*
X87772730Y-96639215D01*
X87703237Y-96535211D01*
X87614789Y-96446763D01*
X87510785Y-96377270D01*
X87395223Y-96329403D01*
X87272542Y-96305000D01*
X86645750Y-96305000D01*
X86487000Y-96463750D01*
X86233000Y-96463750D01*
X86074250Y-96305000D01*
X85447458Y-96305000D01*
X85324777Y-96329403D01*
X85209215Y-96377270D01*
X85105211Y-96446763D01*
X85016763Y-96535211D01*
X84947270Y-96639215D01*
X84899403Y-96754777D01*
X84875000Y-96877458D01*
X84530000Y-96877458D01*
X84530000Y-94265750D01*
X84875000Y-94265750D01*
X84875000Y-94892542D01*
X84899403Y-95015223D01*
X84947270Y-95130785D01*
X85016763Y-95234789D01*
X85105211Y-95323237D01*
X85209215Y-95392730D01*
X85324777Y-95440597D01*
X85447458Y-95465000D01*
X86074250Y-95465000D01*
X86233000Y-95306250D01*
X86233000Y-94107000D01*
X85033750Y-94107000D01*
X84875000Y-94265750D01*
X84530000Y-94265750D01*
X84530000Y-93067458D01*
X84875000Y-93067458D01*
X84875000Y-93694250D01*
X85033750Y-93853000D01*
X86233000Y-93853000D01*
X86233000Y-92653750D01*
X86487000Y-92653750D01*
X86487000Y-93853000D01*
X86507000Y-93853000D01*
X86507000Y-94107000D01*
X86487000Y-94107000D01*
X86487000Y-95306250D01*
X86645750Y-95465000D01*
X87272542Y-95465000D01*
X87395223Y-95440597D01*
X87510785Y-95392730D01*
X87614789Y-95323237D01*
X87703237Y-95234789D01*
X87772730Y-95130785D01*
X87820597Y-95015223D01*
X87822701Y-95004647D01*
X87846287Y-95033567D01*
X88069599Y-95218306D01*
X88324539Y-95356152D01*
X88601399Y-95441854D01*
X88889633Y-95472149D01*
X89178261Y-95445882D01*
X89456291Y-95364053D01*
X89713131Y-95229780D01*
X89939000Y-95048177D01*
X90125294Y-94826161D01*
X90169498Y-94745753D01*
X90203112Y-94808971D01*
X90386287Y-95033567D01*
X90609599Y-95218306D01*
X90864539Y-95356152D01*
X91141399Y-95441854D01*
X91429633Y-95472149D01*
X91718261Y-95445882D01*
X91996291Y-95364053D01*
X92253131Y-95229780D01*
X92479000Y-95048177D01*
X92665294Y-94826161D01*
X92804916Y-94572189D01*
X92892549Y-94295934D01*
X92924855Y-94007919D01*
X92925000Y-93987185D01*
X92925000Y-93972815D01*
X92896718Y-93684377D01*
X92812951Y-93406925D01*
X92676888Y-93151029D01*
X92493713Y-92926433D01*
X92385607Y-92837000D01*
X97625000Y-92837000D01*
X97625000Y-93237000D01*
X97677350Y-93514514D01*
X97782834Y-93776483D01*
X97937399Y-94012839D01*
X98135105Y-94214500D01*
X98368354Y-94373715D01*
X98628182Y-94484367D01*
X98710961Y-94501904D01*
X98933000Y-94379915D01*
X98933000Y-92837000D01*
X97625000Y-92837000D01*
X92385607Y-92837000D01*
X92270401Y-92741694D01*
X92015461Y-92603848D01*
X91738601Y-92518146D01*
X91450367Y-92487851D01*
X91161739Y-92514118D01*
X90883709Y-92595947D01*
X90626869Y-92730220D01*
X90401000Y-92911823D01*
X90214706Y-93133839D01*
X90170502Y-93214247D01*
X90136888Y-93151029D01*
X89953713Y-92926433D01*
X89730401Y-92741694D01*
X89475461Y-92603848D01*
X89198601Y-92518146D01*
X88910367Y-92487851D01*
X88621739Y-92514118D01*
X88343709Y-92595947D01*
X88086869Y-92730220D01*
X87861000Y-92911823D01*
X87823041Y-92957061D01*
X87820597Y-92944777D01*
X87772730Y-92829215D01*
X87703237Y-92725211D01*
X87614789Y-92636763D01*
X87510785Y-92567270D01*
X87395223Y-92519403D01*
X87272542Y-92495000D01*
X86645750Y-92495000D01*
X86487000Y-92653750D01*
X86233000Y-92653750D01*
X86074250Y-92495000D01*
X85447458Y-92495000D01*
X85324777Y-92519403D01*
X85209215Y-92567270D01*
X85105211Y-92636763D01*
X85016763Y-92725211D01*
X84947270Y-92829215D01*
X84899403Y-92944777D01*
X84875000Y-93067458D01*
X84530000Y-93067458D01*
X84530000Y-92183000D01*
X97625000Y-92183000D01*
X97625000Y-92583000D01*
X98933000Y-92583000D01*
X98933000Y-91040085D01*
X99187000Y-91040085D01*
X99187000Y-92583000D01*
X99207000Y-92583000D01*
X99207000Y-92837000D01*
X99187000Y-92837000D01*
X99187000Y-94379915D01*
X99409039Y-94501904D01*
X99491818Y-94484367D01*
X99751646Y-94373715D01*
X99984895Y-94214500D01*
X100182601Y-94012839D01*
X100334412Y-93780695D01*
X100404758Y-93912996D01*
X100581766Y-94130029D01*
X100797558Y-94308548D01*
X101043915Y-94441753D01*
X101311453Y-94524569D01*
X101589982Y-94553844D01*
X101868892Y-94528461D01*
X102137560Y-94449388D01*
X102385753Y-94319636D01*
X102604017Y-94144147D01*
X102784038Y-93929607D01*
X102870228Y-93772827D01*
X102944758Y-93912996D01*
X103121766Y-94130029D01*
X103337558Y-94308548D01*
X103583915Y-94441753D01*
X103851453Y-94524569D01*
X104129982Y-94553844D01*
X104408892Y-94528461D01*
X104677560Y-94449388D01*
X104925753Y-94319636D01*
X105144017Y-94144147D01*
X105324038Y-93929607D01*
X105410228Y-93772827D01*
X105484758Y-93912996D01*
X105661766Y-94130029D01*
X105877558Y-94308548D01*
X106123915Y-94441753D01*
X106391453Y-94524569D01*
X106669982Y-94553844D01*
X106948892Y-94528461D01*
X107217560Y-94449388D01*
X107465753Y-94319636D01*
X107684017Y-94144147D01*
X107864038Y-93929607D01*
X107950228Y-93772827D01*
X108024758Y-93912996D01*
X108201766Y-94130029D01*
X108417558Y-94308548D01*
X108663915Y-94441753D01*
X108931453Y-94524569D01*
X109209982Y-94553844D01*
X109488892Y-94528461D01*
X109757560Y-94449388D01*
X110005753Y-94319636D01*
X110224017Y-94144147D01*
X110404038Y-93929607D01*
X110490228Y-93772827D01*
X110564758Y-93912996D01*
X110741766Y-94130029D01*
X110957558Y-94308548D01*
X111203915Y-94441753D01*
X111471453Y-94524569D01*
X111749982Y-94553844D01*
X112028892Y-94528461D01*
X112297560Y-94449388D01*
X112545753Y-94319636D01*
X112764017Y-94144147D01*
X112944038Y-93929607D01*
X113030228Y-93772827D01*
X113104758Y-93912996D01*
X113281766Y-94130029D01*
X113497558Y-94308548D01*
X113743915Y-94441753D01*
X114011453Y-94524569D01*
X114289982Y-94553844D01*
X114568892Y-94528461D01*
X114837560Y-94449388D01*
X115085753Y-94319636D01*
X115304017Y-94144147D01*
X115484038Y-93929607D01*
X115565759Y-93780956D01*
X115717399Y-94012839D01*
X115915105Y-94214500D01*
X116148354Y-94373715D01*
X116408182Y-94484367D01*
X116490961Y-94501904D01*
X116713000Y-94379915D01*
X116713000Y-92837000D01*
X116967000Y-92837000D01*
X116967000Y-94379915D01*
X117189039Y-94501904D01*
X117271818Y-94484367D01*
X117469924Y-94400000D01*
X121701928Y-94400000D01*
X121701928Y-96100000D01*
X121709992Y-96201121D01*
X121763106Y-96372634D01*
X121861900Y-96522559D01*
X121998550Y-96639025D01*
X122162237Y-96712810D01*
X122340000Y-96738072D01*
X124040000Y-96738072D01*
X124141121Y-96730008D01*
X124312634Y-96676894D01*
X124462559Y-96578100D01*
X124579025Y-96441450D01*
X124652810Y-96277763D01*
X124653171Y-96275224D01*
X124676287Y-96303567D01*
X124899599Y-96488306D01*
X125154539Y-96626152D01*
X125431399Y-96711854D01*
X125719633Y-96742149D01*
X126008261Y-96715882D01*
X126286291Y-96634053D01*
X126543131Y-96499780D01*
X126769000Y-96318177D01*
X126955294Y-96096161D01*
X126999498Y-96015753D01*
X127033112Y-96078971D01*
X127216287Y-96303567D01*
X127439599Y-96488306D01*
X127694539Y-96626152D01*
X127971399Y-96711854D01*
X128259633Y-96742149D01*
X128548261Y-96715882D01*
X128826291Y-96634053D01*
X129083131Y-96499780D01*
X129309000Y-96318177D01*
X129495294Y-96096161D01*
X129634916Y-95842189D01*
X129722549Y-95565934D01*
X129754855Y-95277919D01*
X129755000Y-95257185D01*
X129755000Y-95242815D01*
X129726718Y-94954377D01*
X129642951Y-94676925D01*
X129506888Y-94421029D01*
X129323713Y-94196433D01*
X129100401Y-94011694D01*
X129043097Y-93980710D01*
X129083131Y-93959780D01*
X129309000Y-93778177D01*
X129495294Y-93556161D01*
X129634916Y-93302189D01*
X129722549Y-93025934D01*
X129754855Y-92737919D01*
X129755000Y-92717185D01*
X129755000Y-92702815D01*
X129726718Y-92414377D01*
X129642951Y-92136925D01*
X129506888Y-91881029D01*
X129323713Y-91656433D01*
X129100401Y-91471694D01*
X128845461Y-91333848D01*
X128568601Y-91248146D01*
X128280367Y-91217851D01*
X127991739Y-91244118D01*
X127713709Y-91325947D01*
X127456869Y-91460220D01*
X127231000Y-91641823D01*
X127044706Y-91863839D01*
X126997400Y-91949889D01*
X126925178Y-91828645D01*
X126730269Y-91612412D01*
X126496920Y-91438359D01*
X126234099Y-91313175D01*
X126086890Y-91268524D01*
X125857000Y-91389845D01*
X125857000Y-92583000D01*
X125877000Y-92583000D01*
X125877000Y-92837000D01*
X125857000Y-92837000D01*
X125857000Y-92857000D01*
X125603000Y-92857000D01*
X125603000Y-92837000D01*
X125583000Y-92837000D01*
X125583000Y-92583000D01*
X125603000Y-92583000D01*
X125603000Y-91389845D01*
X125373110Y-91268524D01*
X125225901Y-91313175D01*
X124963080Y-91438359D01*
X124729731Y-91612412D01*
X124534822Y-91828645D01*
X124463077Y-91949090D01*
X124426888Y-91881029D01*
X124243713Y-91656433D01*
X124020401Y-91471694D01*
X123765461Y-91333848D01*
X123488601Y-91248146D01*
X123200367Y-91217851D01*
X122911739Y-91244118D01*
X122633709Y-91325947D01*
X122376869Y-91460220D01*
X122151000Y-91641823D01*
X121964706Y-91863839D01*
X121825084Y-92117811D01*
X121737451Y-92394066D01*
X121705145Y-92682081D01*
X121705000Y-92702815D01*
X121705000Y-92717185D01*
X121733282Y-93005623D01*
X121817049Y-93283075D01*
X121953112Y-93538971D01*
X122136287Y-93763567D01*
X122169882Y-93791359D01*
X122067366Y-93823106D01*
X121917441Y-93921900D01*
X121800975Y-94058550D01*
X121727190Y-94222237D01*
X121701928Y-94400000D01*
X117469924Y-94400000D01*
X117531646Y-94373715D01*
X117764895Y-94214500D01*
X117962601Y-94012839D01*
X118117166Y-93776483D01*
X118222650Y-93514514D01*
X118275000Y-93237000D01*
X118275000Y-92837000D01*
X116967000Y-92837000D01*
X116713000Y-92837000D01*
X116693000Y-92837000D01*
X116693000Y-92583000D01*
X116713000Y-92583000D01*
X116713000Y-91040085D01*
X116967000Y-91040085D01*
X116967000Y-92583000D01*
X118275000Y-92583000D01*
X118275000Y-92183000D01*
X118222650Y-91905486D01*
X118117166Y-91643517D01*
X117962601Y-91407161D01*
X117764895Y-91205500D01*
X117531646Y-91046285D01*
X117271818Y-90935633D01*
X117189039Y-90918096D01*
X116967000Y-91040085D01*
X116713000Y-91040085D01*
X116490961Y-90918096D01*
X116408182Y-90935633D01*
X116148354Y-91046285D01*
X115915105Y-91205500D01*
X115717399Y-91407161D01*
X115565588Y-91639305D01*
X115495242Y-91507004D01*
X115318234Y-91289971D01*
X115102442Y-91111452D01*
X114856085Y-90978247D01*
X114588547Y-90895431D01*
X114310018Y-90866156D01*
X114031108Y-90891539D01*
X113762440Y-90970612D01*
X113514247Y-91100364D01*
X113295983Y-91275853D01*
X113115962Y-91490393D01*
X113029772Y-91647173D01*
X112955242Y-91507004D01*
X112778234Y-91289971D01*
X112562442Y-91111452D01*
X112316085Y-90978247D01*
X112048547Y-90895431D01*
X111770018Y-90866156D01*
X111491108Y-90891539D01*
X111222440Y-90970612D01*
X110974247Y-91100364D01*
X110755983Y-91275853D01*
X110575962Y-91490393D01*
X110489772Y-91647173D01*
X110415242Y-91507004D01*
X110238234Y-91289971D01*
X110022442Y-91111452D01*
X109776085Y-90978247D01*
X109508547Y-90895431D01*
X109230018Y-90866156D01*
X108951108Y-90891539D01*
X108682440Y-90970612D01*
X108434247Y-91100364D01*
X108215983Y-91275853D01*
X108035962Y-91490393D01*
X107949772Y-91647173D01*
X107875242Y-91507004D01*
X107698234Y-91289971D01*
X107482442Y-91111452D01*
X107236085Y-90978247D01*
X106968547Y-90895431D01*
X106690018Y-90866156D01*
X106411108Y-90891539D01*
X106142440Y-90970612D01*
X105894247Y-91100364D01*
X105675983Y-91275853D01*
X105495962Y-91490393D01*
X105409772Y-91647173D01*
X105335242Y-91507004D01*
X105158234Y-91289971D01*
X104942442Y-91111452D01*
X104696085Y-90978247D01*
X104428547Y-90895431D01*
X104150018Y-90866156D01*
X103871108Y-90891539D01*
X103602440Y-90970612D01*
X103354247Y-91100364D01*
X103135983Y-91275853D01*
X102955962Y-91490393D01*
X102869772Y-91647173D01*
X102795242Y-91507004D01*
X102618234Y-91289971D01*
X102402442Y-91111452D01*
X102156085Y-90978247D01*
X101888547Y-90895431D01*
X101610018Y-90866156D01*
X101331108Y-90891539D01*
X101062440Y-90970612D01*
X100814247Y-91100364D01*
X100595983Y-91275853D01*
X100415962Y-91490393D01*
X100334241Y-91639044D01*
X100182601Y-91407161D01*
X99984895Y-91205500D01*
X99751646Y-91046285D01*
X99491818Y-90935633D01*
X99409039Y-90918096D01*
X99187000Y-91040085D01*
X98933000Y-91040085D01*
X98710961Y-90918096D01*
X98628182Y-90935633D01*
X98368354Y-91046285D01*
X98135105Y-91205500D01*
X97937399Y-91407161D01*
X97782834Y-91643517D01*
X97677350Y-91905486D01*
X97625000Y-92183000D01*
X84530000Y-92183000D01*
X84530000Y-89371670D01*
X84539254Y-89422091D01*
X84675338Y-89765799D01*
X84875590Y-90076529D01*
X85132382Y-90342446D01*
X85435935Y-90553420D01*
X85774684Y-90701416D01*
X86135729Y-90780797D01*
X86505315Y-90788539D01*
X86869367Y-90724346D01*
X87214017Y-90590666D01*
X87526137Y-90392588D01*
X87793840Y-90137658D01*
X88006929Y-89835586D01*
X88157286Y-89497877D01*
X88239185Y-89137396D01*
X88245081Y-88715166D01*
X88173279Y-88352539D01*
X88032410Y-88010764D01*
X87827839Y-87702860D01*
X87567358Y-87440555D01*
X87260890Y-87233839D01*
X86920107Y-87090587D01*
X86819815Y-87070000D01*
X98841928Y-87070000D01*
X98841928Y-88480000D01*
M02*
